<?xml version="1.0" encoding="UTF-8"?>
<svg version="1.1" viewBox="0 0 1200 1200" xmlns="http://www.w3.org/2000/svg">
<path transform="translate(0)" d="m0 0h1200v1200h-1200v-1200z" fill="#C0B6CE"/>
<path transform="translate(579.3 99.699)" d="m0 0c1.6131-0.0039054 3.2263-0.0082437 4.8394-0.012985 3.3556-0.0073907 6.711-0.0072238 10.067-0.0019074 3.3986 0.004634 6.7968-0.0023055 10.195-0.020508 35.966-0.19086 35.966-0.19086 51.598 3.3362 1.0856 0.22534 2.1713 0.45069 3.2898 0.68286 2.7282 0.58465 5.4372 1.2186 8.1477 1.8796 5.6744 1.3456 11.281 2.6292 17.062 3.4375 5.6065 0.85264 10.682 2.7142 15.977 4.707 4.3765 1.606 8.8131 2.9189 13.293 4.2031 4.2142 1.4217 8.1954 3.2266 12.23 5.0898 0.82299 0.37858 1.646 0.75716 2.4939 1.1472 10.467 4.8504 20.645 9.8569 30.506 15.853 2.9868 1.6908 5.9901 3.3506 9 5v2c1.98 0.66 3.96 1.32 6 2v2l2.0625 0.6875c3.6364 1.6248 6.9658 3.6405 9.9375 6.3125v2c0.57879 0.26168 1.1576 0.52336 1.7539 0.79297 2.3818 1.28 4.1693 2.7206 6.1836 4.5195 0.6484 0.57363 1.2968 1.1473 1.9648 1.7383 5.1721 4.8061 9.8814 9.9836 14.598 15.23 1.6797 1.8267 3.4109 3.6072 5.1875 5.3398 1.9473 2.0032 3.1211 3.4726 4.3125 5.9414 1.7334 3.4627 1.7334 3.4627 4.375 5.3125 3.76 3.0438 6.3443 6.8693 8.625 11.125v3c0.99 0.33 1.98 0.66 3 1 1.3945 2.0039 1.3945 2.0039 2.8125 4.5625 1.9117 3.336 3.8606 6.4261 6.25 9.4375 3.3526 4.3418 5.6048 9.0569 7.9375 14 0.66341 1.3142 1.3299 2.6268 2 3.9375 4.5572 9.151 8.4096 18.495 12 28.062 0.48999 1.2738 0.98091 2.5472 1.4727 3.8203 3.123 8.1346 5.9193 16.318 8.4492 24.656 0.66734 2.1809 1.3692 4.352 2.125 6.5039 1.1131 3.5262 1.8107 7.0732 2.4531 10.707 0.12818 0.7077 0.25636 1.4154 0.38843 2.1445 0.25602 1.4143 0.51053 2.8288 0.76343 4.2437 0.29289 1.6189 0.60186 3.2349 0.91455 4.8501 2.7076 14.05 3.7423 27.842 3.9242 42.119 0.037957 2.9754 0.086611 5.9505 0.13771 8.9257 0.072217 4.2522 0.14043 8.5045 0.20541 12.757 0.17137 11.064 0.38276 22.128 0.60379 33.191 0.021783 1.0917 0.043565 2.1835 0.066008 3.3083 0.37844 18.649 0.97492 37.271 1.934 55.899 0.083371 1.7047 0.083371 1.7047 0.16843 3.4438 0.57485 11.528 1.4527 22.979 2.8433 34.439 0.11702 0.97599 0.23404 1.952 0.3546 2.9576 1.0887 8.4135 3.1903 16.102 6.1962 24.035 0.41508 1.1086 0.83016 2.2172 1.2578 3.3594 2.0617 5.2126 4.3903 9.8511 7.4844 14.512 2.6269 4.4462 4.3455 9.3448 6.2578 14.129 0.59935 1.3563 1.2026 2.7109 1.8125 4.0625 1.1875 2.9375 1.1875 2.9375 1.1875 5.9375h2c1.529 2.1388 2.9341 4.2668 4.3125 6.5 0.40082 0.63841 0.80164 1.2768 1.2146 1.9346 0.79782 1.272 1.5929 2.5457 2.385 3.8213 0.91692 1.47 1.8519 2.9288 2.791 4.3848 3.2969 5.1158 3.2969 5.1158 3.2969 7.3594h2l1 4h2c1.2651 1.4971 1.2651 1.4971 2.6797 3.5781 0.51691 0.74895 1.0338 1.4979 1.5664 2.2695 0.53754 0.79277 1.0751 1.5855 1.6289 2.4023 3.1399 4.6068 6.1225 8.8441 10.125 12.75v2h2c1.7266 2.3359 1.7266 2.3359 3.625 5.375 0.63164 0.99773 1.2633 1.9955 1.9141 3.0234 1.4609 2.6016 1.4609 2.6016 1.4609 4.6016 0.99 0.33 1.98 0.66 3 1 1.7188 2.3281 1.7188 2.3281 3.5 5.25 0.58781 0.95391 1.1756 1.9078 1.7812 2.8906 0.56719 0.94359 1.1344 1.8872 1.7188 2.8594 0.56719 0.88172 1.1344 1.7634 1.7188 2.6719 1.2812 2.3281 1.2812 2.3281 1.2812 5.3281h2c0.24234 0.65227 0.48469 1.3045 0.73438 1.9766 0.33516 0.87398 0.67031 1.748 1.0156 2.6484 0.32484 0.85852 0.64969 1.717 0.98438 2.6016 1.2113 2.8744 1.2113 2.8744 3.2188 5.5742 2.4288 3.7962 3.7096 7.4858 5.0469 11.762 0.25491 0.79285 0.50982 1.5857 0.77246 2.4026 0.5118 1.5978 1.0194 3.197 1.5225 4.7976 0.6229 1.9765 1.2642 3.9472 1.9082 5.917 8.5521 26.614 6.5782 56.08-5.6328 81.27-3.0807 5.806-3.0807 5.806-5.5703 7.0508 0.070737-0.65557 0.14147-1.3111 0.21436-1.9866 1.138-11.335 0.93667-22.635 0.78564-34.013-0.007251-0.90557-0.014502-1.8111-0.021973-2.7441-0.11195-9.9196-1.1356-19.311-3.2905-29.006-0.20069-0.90516-0.40138-1.8103-0.60815-2.7429-1.1888-4.9364-2.7463-9.2478-5.1401-13.724-1.2929-2.454-2.2568-5.0084-3.2517-7.5952-3.5664-8.6754-8.7176-16.204-14.523-23.531-1.1641-1.6562-1.1641-1.6562-2.1641-4.6562h-2c-1.6101-2.5141-3.1009-5.0259-4.5625-7.625-0.90278-1.569-1.8078-3.1366-2.7148-4.7031-0.45617-0.78826-0.91233-1.5765-1.3823-2.3887-5.1306-8.7398-10.78-17.1-16.907-25.174-1.4336-2.1094-1.4336-2.1094-1.4336-4.1094h-2c-1.1518-1.6416-2.2213-3.3411-3.25-5.0625-2.4844-4.0161-5.0085-7.629-8.1562-11.137-5.3296-6.0219-10.171-12.503-15.051-18.891-1.4941-1.9321-1.4941-1.9321-3.2422-3.5391-1.3008-1.3711-1.3008-1.3711-1.3008-3.3711h-2c0.29004 1.5662 0.29004 1.5662 0.58594 3.1641 1.5207 8.5031 2.6461 16.908 3.2891 25.523 1.1449 14.589 4.5144 28.683 8.4297 42.754 0.59395 2.1856 1.1266 4.372 1.6367 6.5781 1.2438 5.038 3.1335 9.8322 4.9961 14.668 0.5211 1.3854 0.5211 1.3854 1.0527 2.7988 1.7034 4.4559 3.5227 8.4366 6.0098 12.514 1.0262 2.5969 2.0024 5.1839 2.9375 7.8125 1.7785 4.8797 3.6157 9.556 6.0703 14.141 1.3382 2.7607 2.3628 5.6085 3.4297 8.4844 1.7897 4.7543 3.8039 9.109 6.3594 13.492 5.2031 8.9534 5.2031 8.9534 5.2031 12.07h2c0.84114 1.4329 1.6727 2.8715 2.5 4.3125 0.46406 0.80051 0.92812 1.601 1.4062 2.4258 1.0938 2.2617 1.0938 2.2617 1.0938 5.2617h2c0.9819 2.4323 1.958 4.8667 2.9258 7.3047 0.8422 2.1132 1.7044 4.2183 2.5742 6.3203 2.21 5.9574 3.5642 12.196 5.0181 18.372 0.43002 1.7876 0.89686 3.5662 1.3687 5.3433 5.0092 20.159 3.2671 39.977-1.6367 59.91-1.1421 4.6879-1.6244 8.098-0.25 12.75l2 1c4.8125 8.4376 7.4895 17.39 9.7058 26.774 0.47965 2.0302 0.97789 4.055 1.4797 6.0798 2.1254 8.6772 3.874 17.396 5.455 26.187 0.34659 1.8896 0.71611 3.775 1.0865 5.6601 2.3889 12.201 4.1369 24.485 5.8354 36.8 0.23403 1.6874 0.23403 1.6874 0.47278 3.4089 2.2062 16.031 3.7912 31.901 4.5858 48.06 0.78927 15.935 2.6891 31.711 5.8789 47.344 0.30224 1.486 0.30224 1.486 0.6106 3.002 1.4943 6.8772 2.8559 12.525 8.8894 16.686v2h2c11.097 11.45 15.517 32.143 18.445 47.305 1.2047 6.2261 2.6897 12.33 4.3674 18.445 0.25991 0.95358 0.51981 1.9072 0.7876 2.8896 1.8734 6.7525 4.0264 13.328 6.5171 19.876 0.88281 2.4844 0.88281 2.4844 0.88281 4.4844h-869c0-6.1967 0.24012-9.7994 1.8125-15.5 1.4078-5.1348 2.5315-10.229 3.4844-15.469 1.8759-10.296 4.1505-20.504 6.4094-30.722 0.72974-3.3029 1.4544-6.607 2.1785-9.9111 16.01-72.807 16.01-72.807 36.115-87.398 0.65613-0.28875 1.3123-0.5775 1.9883-0.875 3.4149-1.9097 5.4522-4.3462 6.6367-8.1118 0.54038-2.4333 0.97256-4.8658 1.375-7.3257 0.16242-0.91572 0.32484-1.8314 0.49219-2.7749 0.52098-2.9681 1.0178-5.9393 1.5078-8.9126 0.165-0.99725 0.33-1.9945 0.5-3.022 0.66843-4.0491 1.3358-8.0983 1.9978-12.148 1.5451-9.343 3.4393-18.589 5.5022-27.83 0.23332-1.0622 0.46664-2.1244 0.70703-3.2188 0.73528-3.2679 1.5097-6.5245 2.293-9.7812 0.18756-0.79342 0.37512-1.5868 0.56836-2.4043 3.8676-16.291 8.5332-32.282 13.43-48.286 1.0903-3.6038 2.1298-7.2196 3.1567-10.842 2.1-7.3915 4.672-14.461 7.8447-21.468-0.75668-0.28875-1.5134-0.5775-2.293-0.875-12.34-5.1282-19.379-17.484-24.707-29.125-10.654-26.463-6.6476-54.108 4.1758-79.875 8.6327-19.806 8.6327-19.806 14.824-28.125h2c0.30938-0.94875 0.61875-1.8975 0.9375-2.875 1.0625-3.125 1.0625-3.125 2.0625-5.125h2c0.25137-0.71672 0.50273-1.4334 0.76172-2.1719 1.3493-3.0817 3.0094-5.4083 5.0508-8.0781 3.5233-4.7444 6.4341-9.5355 9.1875-14.75 0.39703-0.68191 0.79406-1.3638 1.2031-2.0664 3.265-5.6104 5.7427-11.438 8.2461-17.422 1.8485-4.1859 3.9799-8.142 6.2539-12.109 1.3028-2.4134 2.3281-4.8388 3.2969-7.4023h2c0.086367-0.58266 0.17273-1.1653 0.26172-1.7656 0.83306-4.8608 2.0214-9.2062 3.9883-13.734 11.442-26.428 15.358-51.996 10.75-80.5-0.15598-0.98098-0.31195-1.962-0.47266-2.9727-0.79131-4.6215-1.7936-9.1601-2.9023-13.715-2.1605-9.1931-3.5357-18.525-5.0527-27.841-1.0332-6.2668-2.116-12.525-3.1973-18.784-0.20609-1.1969-0.41218-2.3938-0.62451-3.627-0.19868-1.1505-0.39735-2.301-0.60205-3.4863-0.19368-1.1249-0.38736-2.2497-0.58691-3.4087-0.34329-1.9353-0.70107-3.8681-1.084-5.7959-1.4664-7.4276-2.2164-14.886-2.9688-22.412-0.38968-3.8779-0.83407-7.7457-1.3103-11.614-4.5729-37.274-5.1811-75.041-0.56133-112.35 0.31126-2.5706 0.57213-5.1356 0.79639-7.7148 1.5034-15.499 6.0948-30.695 12.172-44.992 1.0157-2.3955 1.9435-4.7648 2.8281-7.207 1.5413-4.1546 3.4305-8.0746 5.4414-12.02 0.52835-1.047 0.52835-1.047 1.0674-2.1152 2.2251-4.385 4.5382-8.7086 6.9639-12.986 2.3414-4.1978 4.5724-8.3968 6.0938-12.961h2c0.22559-0.83402 0.45117-1.668 0.68359-2.5273 1.5849-4.1809 3.7937-7.4159 6.3789-11.035 0.98976-1.4074 1.9793-2.815 2.9688-4.2227 0.49629-0.70141 0.99258-1.4028 1.5039-2.1255 1.3972-1.9928 2.7647-4.0022 4.1211-6.0229 0.61089-0.9048 0.61089-0.9048 1.2341-1.8279 1.113-1.6509 2.2227-3.304 3.3323-4.9573 0.87979-1.1292 0.87979-1.1292 1.7773-2.2812h2c0.25523-0.56332 0.51047-1.1266 0.77344-1.707 5.4027-10.1 14.767-19.448 23.469-26.785 1.919-1.6007 1.919-1.6007 4.1328-3.9453 1.625-1.5625 1.625-1.5625 3.625-1.5625v-2c3.4615-3 3.4615-3 6-3v-2c3.4787-2.9071 7.2875-5.4012 11-8 1.4811-1.077 1.4811-1.077 2.9922-2.1758 8.924-6.3921 18.318-11.691 28.008-16.824 0.64679-0.34337 1.2936-0.68675 1.96-1.0405 7.1375-3.7577 14.32-6.9191 21.884-9.7095 3.2052-1.2694 6.2179-2.7335 9.2812-4.3125 10.431-5.3239 21.399-8.2824 32.649-11.331 3.3321-0.90849 6.6543-1.8489 9.9761-2.7944 1.0673-0.30293 2.1347-0.60586 3.2344-0.91797 1.979-0.58703 3.9443-1.2226 5.8906-1.9102 3.7557-1.183 7.5007-1.8763 11.375-2.5469 5.0177-0.74564 5.0177-0.74564 9.75-2.4375 11.102-1.8865 22.068-2.3124 33.301-2.3008z" fill="#FCEBEB"/>
<path transform="translate(874,843)" d="m0 0c5.8596 0.28188 11.422 0.86882 17.062 2.5625 0.89848 0.26941 1.797 0.53883 2.7227 0.81641 2.743 2.0076 3.2931 3.8172 3.9299 7.1033 0.594 5.2493 0.52725 10.492 0.47241 15.768-6.4453e-4 1.1318-0.0012891 2.2636-0.0019531 3.4297-0.087071 17.453-1.3854 34.776-3.123 52.133-0.36389 3.6977-0.72493 7.3957-1.0859 11.094-0.087238 0.88895-0.17448 1.7779-0.26436 2.6938-0.65745 6.7326-1.2321 13.47-1.7747 20.212-0.79829 9.6236-2.095 19.14-3.564 28.682-0.35778 2.4002-0.67863 4.802-0.98682 7.209-1.5661 11.843-4.1452 23.367-7.0498 34.943-2.8411 10.355-2.8411 10.355-1.4541 20.752 0.61488 0.9784 0.61488 0.9784 1.2422 1.9766 0.45375 0.74766 0.9075 1.4953 1.375 2.2656 0.495 0.77859 0.99 1.5572 1.5 2.3594 1.0463 1.7055 2.0879 3.4139 3.125 5.125 0.47695 0.7657 0.95391 1.5314 1.4453 2.3203 3.9979 7.1439 6.6686 15.055 9.6787 22.659 0.67727 1.7099 1.3584 3.4183 2.04 5.1265 1.2745 3.2437 2.503 6.5005 3.7109 9.7695 0.23187 0.62084 0.46374 1.2417 0.70264 1.8813 11.41 30.936 15.297 63.346 15.297 96.119h-570l2-16c0.66197-5.9134 1.3098-11.828 1.9434-17.744 0.12311-1.1299 0.24621-2.2597 0.37305-3.4238 0.10772-1.0031 0.21543-2.0063 0.32642-3.0398 0.35718-2.7922 0.35718-2.7922 0.87241-5.0411 0.56987-3.234 0.60439-6.2763 0.5983-9.5609 1.4603e-4 -0.66397 2.9205e-4 -1.3279 4.4251e-4 -2.012-6.9307e-4 -2.1805-0.0084569-4.3609-0.016312-6.5414-0.0018663-1.5174-0.0032892-3.0349-0.0042877-4.5523-0.0038082-3.9833-0.013624-7.9666-0.024704-11.95-0.010251-4.0689-0.014801-8.1378-0.019836-12.207-0.010707-7.9759-0.027763-15.952-0.048828-23.928 0.99 0.33 1.98 0.66 3 1l0.29688-2.8594c0.75654-6.4958 1.612-12.448 3.8281-18.641 1.5595-4.4077 2.6763-7.7814 1.875-12.5-1.115-2.3322-2.3676-4.5299-3.6914-6.75-3.3922-5.8325-4.6472-11.239-5-17.953-0.17679-2.3044-0.17679-2.3044-1.2893-4.1746-3.6092-7.5148-2.1742-17.79-2.1497-25.944 0.0053527-2.1082 2.826e-5 -4.2162-0.0063477-6.3245-0.0032249-6.7524 0.19175-13.408 0.90039-20.13 0.26882-3.0984 0.35274-6.1731 0.41211-9.2825 0.023848-1.1286 0.047695-2.2571 0.072266-3.4199 0.042892-2.3019 0.074184-4.604 0.09375-6.9062 0.19747-8.0503 1.8213-14.612 4.6582-22.115 1.532-5.0168 2.3156-9.9993 2.7539-15.215 0.24609-1.7852 0.24609-1.7852 1.2461-2.7852 1.6662-0.040638 3.3339-0.042721 5 0-0.0087012 0.8254-0.017402 1.6508-0.026367 2.5012-0.25006 44.044 4.0201 87.247 12.026 130.5 0.128 0.69714 0.256 1.3943 0.38788 2.1125 1.4064 7.6582 2.813 15.31 4.6121 22.887 0.15211 0.6716 0.30422 1.3432 0.46094 2.0352 1.1354 4.83 2.7247 9.3465 4.5391 13.965 9.6881-1.3489 19.21-3.2436 28.75-5.375 1.4257-0.3157 2.8514-0.63121 4.2771-0.94653 12.271-2.7203 24.526-5.4541 36.66-8.741 16.134-4.3373 32.524-6.8434 48.992-9.54 3.7956-0.62509 7.5896-1.2584 11.383-1.8975 1.2425-0.20891 2.485-0.41782 3.7651-0.63306 6.2569-1.0826 12.285-2.3387 18.36-4.1794 15.46-4.3224 26.864-1.6765 40.902 5.3896 6.0769 2.9352 12.306 4.2133 19 4.6143 1.9102 0.30859 1.9102 0.30859 4.9102 2.3086 3.0716 0.26141 5.1994 0.43905 7.9375-1.0625 2.0625-0.9375 2.0625-0.9375 5.1875-0.375 9.6705 1.0918 19.931-4.9015 28.66-8.5977 8.7586-3.5615 13.364-2.518 22.027 0.97266 0.76192 0.30067 1.5238 0.60135 2.3088 0.91113 4.7552 1.8823 9.4931 3.8062 14.23 5.7334 1.0908 0.44158 2.1816 0.88317 3.3054 1.3381 2.1354 0.86563 4.2685 1.7369 6.3989 2.6147 5.7488 2.332 11.43 4.2328 17.437 5.7798 2.8661 0.78327 5.5719 1.8053 8.3357 2.886 4.811 1.7706 9.7632 3.1401 14.672 4.6118 7.4703 2.2606 14.863 4.5739 22.125 7.4375 7.6665 2.9778 15.385 4.8914 23.375 6.75 2.1466 0.55975 4.2925 1.122 6.4375 1.6875 4.8572 1.2226 9.5735 1.8967 14.562 2.3125 7.146-9.0622 12.605-18.833 18-29 0.88752-1.6668 0.88752-1.6668 1.793-3.3672 5.9223-11.479 9.9328-23.466 13.395-35.883 0.34225-1.2014 0.68449-2.4028 1.0371-3.6406 1.428-5.0577 2.8067-10.08 3.8379-15.234 0.84281-3.4836 1.3122-5.1293 3.75-7.625 0.48082-0.51047 0.96164-1.0209 1.457-1.5469 0.57105-0.56203 1.1421-1.1241 1.7305-1.7031 20.97-20.665 27.132-47.613 27.4-76.417-0.081228-6.9122-1.2107-13.209-2.9004-19.896-3.877-15.483-2.405-29.337-0.25391-45.023 0.71413-5.2107 1.2716-10.427 1.7539-15.664z" fill="#7A6F7F"/>
<path transform="translate(364.56 909.94)" d="m0 0 2.4375 0.0625c-0.0087012 0.8254-0.017402 1.6508-0.026367 2.5012-0.25006 44.044 4.0201 87.247 12.026 130.5 0.128 0.69714 0.256 1.3943 0.38788 2.1125 1.4064 7.6582 2.813 15.31 4.6121 22.887 0.15211 0.6716 0.30422 1.3432 0.46094 2.0352 1.1354 4.83 2.7247 9.3465 4.5391 13.965 9.6881-1.3489 19.21-3.2436 28.75-5.375 1.4257-0.3157 2.8514-0.63121 4.2771-0.94653 12.271-2.7203 24.526-5.4541 36.66-8.741 13.81-3.7126 27.743-6.055 41.84-8.3652 6.3484-1.0462 12.692-2.1176 19.035-3.1973 1.2305-0.20609 2.461-0.41218 3.7288-0.62451 6.8775-1.1382 6.8775-1.1382 13.611-2.8989 3.4746-0.95518 6.511-0.99796 10.098-0.85156 0.4357 0.90621 0.87141 1.8124 1.3203 2.7461 3.0975 6.3639 6.2308 12.488 10.32 18.289 0.97887 1.4149 1.8954 2.8736 2.7695 4.3555 2.3883 3.9199 5.1908 7.5158 7.9453 11.184 1.6445 2.4258 1.6445 2.4258 1.6445 4.4258h2l1 4h2c3 3.4615 3 3.4615 3 6l1.75 0.6875c2.8291 1.6503 4.2327 3.7451 6.25 6.3125l2.75 2.1875 2.25 1.8125v2c-1.1859 0.15855-2.3719 0.31711-3.5938 0.48047-10.898 1.5389-21.027 3.8794-31.406 7.5195-1.5797 0.54721-1.5797 0.54721-3.1914 1.1055-3.9549 1.4044-7.8467 2.8813-11.684 4.582-2.7557 1.1574-5.1822 1.8666-8.125 2.3125v2c-0.53367 0.21914-1.0673 0.43828-1.6172 0.66406-9.5746 4.075-17.648 9.2414-25.448 16.084-3.7378 3.2515-3.7378 3.2515-5.9343 3.2515v2c-1.6454 1.6876-3.3129 3.354-5 5l-1 2h-2c-0.42806 2.6754-0.74627 5.3041-1 8l-0.3125 3.1562c-0.5986 11.074 1.7566 13.732 7.3125 24.844h-150l2-16c0.66197-5.9134 1.3098-11.828 1.9434-17.744 0.12311-1.1299 0.24621-2.2597 0.37305-3.4238 0.16158-1.5047 0.16158-1.5047 0.32642-3.0398 0.35718-2.7922 0.35718-2.7922 0.87241-5.0411 0.56987-3.234 0.60439-6.2763 0.5983-9.5609 1.4603e-4 -0.66397 2.9205e-4 -1.3279 4.4251e-4 -2.012-6.9307e-4 -2.1805-0.0084569-4.3609-0.016312-6.5414-0.0018663-1.5174-0.0032892-3.0349-0.0042877-4.5523-0.0038082-3.9833-0.013624-7.9666-0.024704-11.95-0.010251-4.0689-0.014801-8.1378-0.019836-12.207-0.010707-7.9759-0.027763-15.952-0.048828-23.928 0.99 0.33 1.98 0.66 3 1l0.29688-2.8594c0.75654-6.4958 1.612-12.448 3.8281-18.641 1.5595-4.4077 2.6763-7.7814 1.875-12.5-1.115-2.3322-2.3676-4.5299-3.6914-6.75-3.3922-5.8325-4.6472-11.239-5-17.953-0.17679-2.3044-0.17679-2.3044-1.2893-4.1746-3.6092-7.5148-2.1742-17.79-2.1497-25.944 0.0053527-2.1082 2.826e-5 -4.2162-0.0063477-6.3245-0.0032249-6.7524 0.19175-13.408 0.90039-20.13 0.26882-3.0984 0.35274-6.1731 0.41211-9.2825 0.023848-1.1286 0.047695-2.2571 0.072266-3.4199 0.042892-2.3019 0.074184-4.604 0.09375-6.9062 0.19747-8.0503 1.8213-14.612 4.6582-22.115 1.532-5.0168 2.3156-9.9993 2.7539-15.215 0.39663-2.8771 0.86497-2.7759 3.8086-2.8477z" fill="#796E7D"/>
<path transform="translate(582.09 1058.1)" d="m0 0c6.0769 2.9352 12.306 4.2133 19 4.6143 1.9102 0.30859 1.9102 0.30859 4.9102 2.3086 3.0716 0.26141 5.1994 0.43905 7.9375-1.0625 2.0625-0.9375 2.0625-0.9375 5.1875-0.375 9.6705 1.0918 19.931-4.9015 28.66-8.5977 9.2866-3.7761 14.386-2.1178 23.402 1.4727 1.2095 0.4689 1.2095 0.4689 2.4434 0.94727 3.4099 1.3407 6.3014 2.57 9.3691 4.6152-0.99 0.33-1.98 0.66-3 1l-1 2h-2v2c-1.6927 1.5643-3.4557 3.0533-5.25 4.5l-2.9531 2.4062c-2.7969 2.0938-2.7969 2.0938-5.0938 3.1875-2.0667 0.84879-2.0667 0.84879-2.7031 3.9062-1.5123 1.3302-3.0867 2.5903-4.6875 3.8125-7.3359 5.8301-13.781 12.485-20.312 19.188 2.7119 1.3758 5.3939 2.5777 8.25 3.625 1.2375 0.45375 2.475 0.9075 3.75 1.375v2l2.875 0.9375c3.125 1.0625 3.125 1.0625 5.125 2.0625v2l2.0625 0.75c7.1363 3.0367 12.265 7.0443 17.812 12.375 0.69964 0.66508 1.3993 1.3302 2.1201 2.0154 14.344 13.754 14.344 13.754 19.005 21.86v2c0.5891 0.22559 1.1782 0.45117 1.7852 0.68359 2.8555 1.6972 3.9296 3.5501 5.6523 6.3789 0.60199 0.98355 1.204 1.9671 1.8242 2.9805 1.9479 3.3137 3.847 6.6465 5.6758 10.027 0.87781 1.5943 1.8354 3.1443 2.8125 4.6797 2.4864 4.4755 2.3633 9.0354 2.3125 14.062-0.0090234 1.1614-0.018047 2.3229-0.027344 3.5195-0.017402 1.3206-0.017402 1.3206-0.035156 2.668-28.337 0.18676-56.674 0.3279-85.012 0.4145-13.157 0.041277-26.314 0.097565-39.471 0.18902-11.466 0.079659-22.931 0.13133-34.397 0.14919-6.0731 0.010443-12.145 0.035038-18.218 0.093132-5.7137 0.054218-11.426 0.071069-17.14 0.059021-2.0991 0.0022047-4.1983 0.018169-6.2972 0.048782-2.8635 0.039725-5.7228 0.030275-8.5865 0.0083923-1.2505 0.034954-1.2505 0.034954-2.5263 0.070614-2.3719-0.049108-4.1378-0.1716-6.3511-1.0327-2.2246-2.4246-3.5969-5.0435-5-8-0.59168-1.0132-1.1834-2.0264-1.793-3.0703-3.1595-7.6687-1.6805-17.2 0.79297-24.93h2c0.2475-0.78375 0.495-1.5675 0.75-2.375 1.4039-2.9482 2.2568-3.5275 5.25-4.625v-2c1.9442-1.6707 3.887-3.2195 5.9375-4.75 0.59321-0.44811 1.1864-0.89622 1.7976-1.3579 18.522-13.892 18.522-13.892 25.265-13.892v-2c4.9899-2.6798 9.7088-4.6172 15.152-6.1484 4.5532-1.3616 8.9927-3.0316 13.453-4.668 9.477-3.3044 19.309-5.642 29.395-5.1836l-2.125-2.0625c-2.6228-2.6154-5.0002-5.3972-7.3828-8.2305-1.3919-1.5923-2.8406-3.0576-4.3672-4.5195-2.125-2.1875-2.125-2.1875-2.125-4.1875h-2l-1-4h-2c-1.5066-1.9495-2.8884-3.8899-4.25-5.9375-0.40404-0.59756-0.80808-1.1951-1.2244-1.8108-0.81137-1.2018-1.6199-2.4054-2.4255-3.6111-0.90295-1.3466-1.8216-2.6827-2.7446-4.0156-3.0963-4.5036-5.9158-9.1559-8.668-13.875-0.52509-0.88643-0.52509-0.88643-1.0608-1.7908-1.893-3.2982-3.1363-6.1783-3.6267-9.9592-0.99-0.33-1.98-0.66-3-1 13.798-4.2985 25.83-0.094225 38.089 6.0771z" fill="#E88C91"/>
<path transform="translate(839,595)" d="m0 0h3c-0.6987 3.85-1.7113 7.5153-2.875 11.25-0.35965 1.1563-0.7193 2.3126-1.0898 3.5039-0.79433 2.4909-1.6168 4.9637-2.4727 7.4336-6.3722 19.082-10.7 38.878-13.312 58.812-0.11553 0.8503-0.23106 1.7006-0.3501 2.5767-2.419 20.097-2.1045 40.591-2.0874 60.798 2.7191e-4 1.2158 5.4382e-4 2.4316 8.2397e-4 3.6843 0.015235 14.87 0.14581 29.717 0.99918 44.566 0.070012 1.287 0.14002 2.5739 0.21216 3.8999 0.4916 7.3059 1.6787 14.203 3.3135 21.337 0.82255 3.9001 1.0971 7.5317 1.2244 11.513 0.17389 4.1415 0.36765 8.1146 1.5 12.125 1.0854 4.0521 1.0866 7.326 0.9375 11.5h2c0.1107 0.54938 0.2214 1.0988 0.33545 1.6648 0.50833 2.5086 1.0239 5.0156 1.5396 7.5227 0.26104 1.2965 0.26104 1.2965 0.52734 2.6191 0.88507 4.2778 1.9162 8.1524 3.5977 12.193 0.67697 2.601 1.3215 5.1975 1.9375 7.8125 1.6055 6.5813 3.4251 12.72 6.3242 18.859 2.453 5.2013 4.354 9.5643 4.7383 15.328h2c1.24 5.4416 2.1383 10.79 2.5664 16.359 0.083225 1.0619 0.16645 2.1237 0.2522 3.2178 0.059861 0.79954 0.11972 1.5991 0.1814 2.4229 4.8367-17.473 4.8367-17.473 6.6677-35.436 0.17418-5.8225 1.6424-10.442 4.3323-15.564l1-2h2c2.7235 2.7235 2.8325 5.5897 3.4375 9.25 0.8971 5.2144 1.9441 10.306 3.25 15.438 2.9799 13.723 1.9777 28.621-0.6875 42.312-0.12359 0.68626-0.24718 1.3725-0.37451 2.0796-3.041 16.709-8.1273 30.232-19.625 42.92-0.7077 0.92426-1.4154 1.8485-2.1445 2.8008-0.6123 0.72574-1.2246 1.4515-1.8555 2.1992h-2c-0.26812 0.59812-0.53625 1.1962-0.8125 1.8125-1.1875 2.1875-1.1875 2.1875-2.75 3.625-1.8901 2.0545-2.0699 3.8424-2.4375 6.5625l-2-3h-2v2h-2v2c-1.8359 1.5156-1.8359 1.5156-4.375 3.25-0.81211 0.56203-1.6242 1.1241-2.4609 1.7031-8.1944 5.3011-16.676 10.098-25.227 14.797-1.0242 0.57621-2.0483 1.1524-3.1035 1.7461-5.9462 3.26-11.13 5.4156-17.834 6.5039 3.8399-4.0959 8.0645-7.5 12.5-10.938 5.1664-4.2623 8.8202-8.7326 12.312-14.375 0.4067-0.64518 0.8134-1.2904 1.2324-1.9551 0.9909-1.5738 1.9738-3.1526 2.9551-4.7324-0.65355 0.58008-0.65355 0.58008-1.3203 1.1719-0.59555 0.52078-1.1911 1.0416-1.8047 1.5781-0.58008 0.51047-1.1602 1.0209-1.7578 1.5469-2.5953 2.0877-5.3334 3.875-8.1172 5.7031-1.4579 1.0287-1.4579 1.0287-2.9453 2.0781-6.816 4.6556-13.637 8.2798-21.305 11.359-0.81485 0.32968-1.6297 0.65936-2.4692 0.99902-8.9683 3.4615-17.5 4.8979-27.093 4.751-1.2288-9.668e-4 -1.2288-9.668e-4 -2.4824-0.0019531-4.0261-0.02934-7.7777-0.18976-11.705-1.1855 2.1687-2.1687 4.36-3.4546 7-5l3-2h3v-2c2.1172-1.5078 2.1172-1.5078 4.875-3.125 0.90492-0.53883 1.8098-1.0777 2.7422-1.6328 2.3828-1.2422 2.3828-1.2422 4.3828-1.2422v-2c1.4307-1.2455 2.9225-2.4211 4.4375-3.5625 8.8249-6.8929 17.323-15.078 23.562-24.438h2c0.38865-0.81791 0.38865-0.81791 0.78516-1.6523 1.4152-2.7348 3.0061-5.308 4.6523-7.9102 0.59684-0.95004 1.1937-1.9001 1.8086-2.8789 1.4688-2.1427 2.8956-3.7755 4.7539-5.5586 1.1757-2.0999 1.1757-2.0999 2-4 6.3963-0.12068 12.638 0.34514 19 1l-2.0469-0.95312c-9.9236-4.7611-9.9236-4.7611-11.953-8.0469 0.1062-5.2037 1.8006-10.091 3.2812-15.059 4.8384-19.801 2.7074-44.147-1.2812-63.941-0.20399-1.0287-0.40799-2.0573-0.61816-3.1172-2.7032-13.378-6.0116-26.485-9.9709-39.544-2.4106-8.0398-4.1301-16.044-5.4109-24.339-0.99129-0.13664-1.9826-0.27328-3.0039-0.41406-19.248-2.7587-19.248-2.7587-27.996-6.5859 1.0868-12.172 3.712-24.106 6.4375-36 0.19304-0.87173 0.38607-1.7435 0.58496-2.6416 1.1489-4.886 2.6675-9.066 5.0295-13.491 1.456-2.8685 2.3657-5.8648 3.323-8.9302 2.1414-6.7128 4.6782-13.194 7.3906-19.695 1.0588-2.7811 1.7702-5.3132 2.2344-8.2422h2l0.875-3.75c0.56905-2.3044 1.0979-4.1975 2.1875-6.3125 1.1488-2.122 1.1488-2.122 1.4375-5.5 0.5-3.4375 0.5-3.4375 2.5-6.4375 0.63249-1.817 1.2077-3.6541 1.75-5.5 0.5124-1.7112 0.5124-1.7112 1.0352-3.457 0.28448-0.95254 0.28448-0.95254 0.57471-1.9243 1.2425-4.1124 2.5367-8.2087 3.8276-12.306 0.262-0.83789 0.524-1.6758 0.79395-2.5391 0.24718-0.78504 0.49436-1.5701 0.74902-2.3789 0.22067-0.70278 0.44134-1.4056 0.6687-2.1296 0.60083-1.7649 0.60083-1.7649 1.6008-3.7649h2l2-10h2l0.75-3.8125c1.2283-5.5898 3.1969-10.855 5.25-16.188h2l1.0625-3.625c3.3826-10.038 8.693-19.241 14.188-28.25 0.42418-0.70842 0.84836-1.4168 1.2854-2.1467 1.0707-1.7149 2.259-3.3553 3.4646-4.9783z" fill="#ECBFCA"/>
<path transform="translate(704,730)" d="m0 0h3c0.042721 1.6661 0.040638 3.3338 0 5l-1 1c-0.34521 1.586-0.63571 3.184-0.90234 4.7852-0.16726 0.99693-0.33451 1.9939-0.50684 3.021-0.71427 4.4025-1.4265 8.8051-2.1196 13.211-0.27748 1.7566-0.55963 3.5125-0.85254 5.2666-0.75963 4.5589-1.2862 9.1088-1.6187 13.716-0.073315 1.0095-0.14663 2.019-0.22217 3.0591-0.21625 3.4594-0.35049 6.9142-0.46533 10.378-0.102 1.6539-0.102 1.6539-0.20605 3.3413-0.082136 4.7473-0.060509 7.9422 2.8403 11.831 2.3505 2.3683 2.3505 2.3683 4.8157 4.3748 3.0187 2.719 4.9772 5.2483 5.5781 9.3271-0.01571 0.76981-0.031421 1.5396-0.047607 2.3328-0.009668 0.84111-0.019336 1.6822-0.029297 2.5488-0.025137 0.86432-0.050273 1.7286-0.076172 2.6191-0.013535 0.88365-0.02707 1.7673-0.041016 2.6777-0.035192 2.1702-0.088995 4.3401-0.14648 6.5098-1.9219-0.37109-1.9219-0.37109-4-1-1.25-2.0625-1.25-2.0625-2-4h-2c-2.365-2.9911-3.9155-5.0286-4.25-8.875l0.25-2.125c-3.4629 1.1543-4.0113 2.0057-6.125 4.875-2.7902 3.7025-5.6339 7.343-8.5625 10.938-0.72574 0.89332-1.4515 1.7866-2.1992 2.707-1.9516 2.2907-3.8796 4.4631-6.1133 6.4805h-2c-0.27586 0.58137-0.55172 1.1627-0.83594 1.7617-3.2074 6.1673-7.6534 10.957-12.957 15.379-2.4993 2.1056-4.875 4.3231-7.2695 6.5469-3.837 3.4504-7.2921 6.0758-11.938 8.3125-0.5775 0.29648-1.155 0.59297-1.75 0.89844-10.733 4.8747-21.692 1.8036-32.25-1.8984-1.8513-0.5514-3.7053-1.094-5.5625-1.625-3.0075-0.86218-5.6717-1.9074-8.4375-3.375v-2l-2-0.75c-5.4934-2.2889-11.089-4.8735-16-8.25v-2c-1.3032-0.37125-1.3032-0.37125-2.6328-0.75-3.5832-1.3302-6.1724-2.9872-9.2422-5.25-1.4502-1.0519-1.4502-1.0519-2.9297-2.125-0.72445-0.61875-1.4489-1.2375-2.1953-1.875v-2h-2v-2l-1.75-0.6875c-3.3718-1.9669-5.5104-4.6057-7.0625-8.1875-0.1875-2.125-0.1875-2.125 0.29248-5.2705 0.52747-3.9097 0.66461-7.7166 0.65283-11.651 0.0014351-1.0732 0.0014351-1.0732 0.0028992-2.168 6.7572e-4 -1.4992-0.0011358-2.9983-0.0053406-4.4975-0.0053888-2.2952-1.822e-5 -4.5901 0.0063477-6.8853-6.6027e-4 -1.4622-0.0019404-2.9245-0.0039062-4.3867 0.0020242-0.68439 0.0040485-1.3688 0.006134-2.0739-0.014892-3.0134-0.17753-5.3075-1.1389-8.1917-0.19819-1.3708-0.36169-2.7469-0.5-4.125l-0.25-2.3906c-0.16667-1.6562-0.33333-3.3125-0.5-4.9688l-0.25-2.3906c-0.072188-0.7193-0.14438-1.4386-0.21875-2.1797-0.25307-2.1562-0.25307-2.1562-1.2812-4.9453-0.068991-2.0615-0.084677-4.125-0.0625-6.1875 0.013535-1.63 0.013535-1.63 0.027344-3.293 0.011602-0.83145 0.023203-1.6629 0.035156-2.5195h3l1 2c1.9926 0.86024 4.0208 1.6389 6.0625 2.375 4.5296 1.6813 8.822 3.4743 13.094 5.7188 2.0132 0.98955 4.0477 1.7673 6.1562 2.5312 3.6875 1.375 3.6875 1.375 6.6875 3.375 1.4667 0.48266 2.953 0.90749 4.4492 1.2891 1.2713 0.32871 1.2713 0.32871 2.5684 0.66406 1.3216 0.33258 1.3216 0.33258 2.6699 0.67188 0.89268 0.22945 1.7854 0.45891 2.7051 0.69531 2.2012 0.56502 4.4037 1.1247 6.6074 1.6797v2h26v-2c0.68062-0.24492 1.3612-0.48984 2.0625-0.74219 12.319-4.7506 23.024-12.099 33.719-19.746 2.8631-1.9507 5.8505-3.578 8.8984-5.2188 4.571-2.5471 8.9195-5.4654 13.32-8.293 2.8069-1.8007 5.6203-3.5905 8.4375-5.375 0.68651-0.4411 1.373-0.8822 2.0803-1.3367 0.65283-0.41226 1.3057-0.82452 1.9783-1.2493 0.86903-0.55373 0.86903-0.55373 1.7556-1.1187 1.8925-0.99633 3.6611-1.4838 5.7483-1.9204v-2z" fill="#F1C1C4"/>
<path transform="translate(862,592)" d="m0 0c2.2014 3.5608 2.2283 6.487 2.3125 10.625 0.47137 11.981 3.2776 23.667 5.6875 35.375 0.944 4.6427 1.8848 9.2839 2.7109 13.949 1.4017 7.8905 3.1093 15.586 5.2539 23.316 0.70654 2.5489 1.3894 5.0933 2.0391 7.6562 1.6548 6.4913 3.5037 12.708 6.125 18.879 0.83221 2.1011 1.4192 4.1264 1.9336 6.3242 0.70574 2.9171 1.489 5.4738 2.5625 8.25 1.375 3.625 1.375 3.625 1.375 5.625h2c0.34611 0.78311 0.34611 0.78311 0.69922 1.582 4.4672 10.402 4.4672 10.402 9.4492 20.555 0.85156 1.8633 0.85156 1.8633 0.85156 4.8633 0.99 0.33 1.98 0.66 3 1 1.168 1.7773 1.168 1.7773 2.1875 3.9375 0.51627 1.0654 0.51627 1.0654 1.043 2.1523 0.76953 1.9102 0.76953 1.9102 0.76953 3.9102h2c3 5.75 3 5.75 3 8h2c0.4473 1.039 0.89461 2.078 1.3555 3.1484 0.60997 1.4092 1.2207 2.818 1.832 4.2266 0.31808 0.73299 0.63615 1.466 0.96387 2.2212 1.7487 3.9967 3.5727 7.9128 5.5986 11.779 2.0335 3.9673 3.3808 7.905 4.5703 12.195 0.64985 2.323 1.3927 4.5875 2.1797 6.8672 3.7293 11.109 5.6783 21.541 5.6875 33.25 0.012246 0.82822 0.024492 1.6564 0.037109 2.5098 0.010704 4.4564-0.30147 7.7078-2.2246 11.803-0.43889 2.2025-0.43889 2.2025-0.625 4.3125l-0.375 3.6875c-4.0675-0.50844-7.1398-1.9853-10.727-3.832-7.0919-3.6434-14.244-6.6241-21.836-9.043-0.70318-0.22744-1.4064-0.45488-2.1309-0.68921-3.689-1.349-3.689-1.349-7.3066-0.43579v-2c-2.5409-0.64881-5.0827-1.2941-7.625-1.9375-0.71285-0.1824-1.4257-0.3648-2.1602-0.55273-4.0545-1.0229-8.0743-1.8893-12.215-2.5098v-10c-4.4169-1.2079-8.6861-2.1371-13.234-2.6836-1.3554-0.18659-1.3554-0.18659-2.7383-0.37695-1.8626-0.2528-3.7305-0.46858-5.6016-0.64844-2.8352-0.42914-4.9164-0.89445-7.4258-2.291-2.2868-3.4407-3.1415-6.99-4-11-0.21415-0.9962-0.42829-1.9924-0.64893-3.0188-0.58628-3.0488-1.0772-6.0987-1.5386-9.1687-0.16436-1.028-0.32871-2.0561-0.49805-3.1152-0.45774-2.8965-0.88976-5.7957-1.3145-8.6973-0.19852-1.2865-0.39703-2.573-0.60156-3.8984-0.68901-5.8206-0.5897-11.687-0.58594-17.539-6.042e-5 -0.65457-1.2085e-4 -1.3091-1.8311e-4 -1.9836 0.015762-12.27 0.4731-24.512 1.0627-36.766 0.039206-0.84102 0.078411-1.682 0.1188-2.5486 1.5382-32.36 1.5382-32.36 4.9437-47.514 0.32305-1.5049 0.64461-3.0101 0.96484-4.5156 0.26079-1.2075 0.26079-1.2075 0.52686-2.4395 0.68923-3.3748 1.2819-6.7634 1.8872-10.154 1.925-10.534 4.6764-20.859 7.3496-31.223 2.5724-10.001 4.9458-19.96 6.7375-30.133 0.69376-3.8212 1.5816-7.5382 2.5964-11.285z" fill="#EAC2CA"/>
<path transform="translate(663.38 245.62)" d="m0 0c9.6983 14.174 7.8994 33.849 7.875 50.312-0.0011632 1.3263-0.0011632 1.3263-0.0023498 2.6794-0.096161 37.932-0.096161 37.932-10.693 49.243-1.5547 1.1406-1.5547 1.1406-4.8672 1.6406-2.6875-0.5-2.6875-0.5-3.6875-1.5-1.3735-0.19839-2.7489-0.38311-4.125-0.5625-15.174-2.9397-30.12-14.69-42.25-23.875-0.56606-0.42523-1.1321-0.85046-1.7153-1.2886-1.3436-1.0412-2.6328-2.1519-3.9097-3.2739v-2c-1.0789 0.48855-2.1579 0.97711-3.2695 1.4805-6.3099 2.372-12.855 1.8884-19.506 1.7832-6.186-0.025355-6.186-0.025355-11.072 3.4863-0.71027 1.0725-1.4205 2.145-2.1523 3.25-15.061 13.146-34.436 27.743-55.039 27.602-3.6055-0.73251-4.7494-1.6995-6.9609-4.6016-12.259-24.432-9.0719-56.005-6.6875-82.312 0.058582-0.67997 0.11716-1.3599 0.17752-2.0605 0.1703-1.915 0.36495-3.8277 0.56076-5.7403 0.16496-1.6364 0.16496-1.6364 0.33325-3.3059 0.61597-2.5808 0.61597-2.5808 3.616-4.5808 14.374-2.0363 28.736 4.6451 41.25 10.75 1.103 0.53569 2.2061 1.0714 3.3425 1.6233 3.1407 1.5325 6.2756 3.0763 9.4075 4.6267 0.77747 0.38333 1.5549 0.76667 2.356 1.1616 6.0584 3.0139 10.61 5.2814 14.644 10.838 0.31566-0.5688 0.63132-1.1376 0.95654-1.7236 3.721-5.8809 3.721-5.8809 7.3491-6.9658 2.6325-0.17789 5.1832-0.17182 7.8193-0.060547 6.389 0.48445 6.389 0.48445 11.973-1.8906 0.94166-1.1679 0.94166-1.1679 1.9023-2.3594 2.6914-2.1101 5.5091-4.0422 8.3125-6 0.73412-0.52078 1.4682-1.0416 2.2246-1.5781 10.804-7.5924 38.614-23.845 51.838-14.797z" fill="#967E96"/>
<path transform="translate(455,844)" d="m0 0c-0.4602 1.5778-0.4602 1.5778-0.92969 3.1875-1.4586 5.8654-1.794 11.798-2.1953 17.812-0.084192 1.231-0.16838 2.4619-0.25513 3.7302-0.74686 11.769-0.90479 23.483-0.61987 35.27 0.019336 0.88075 0.038672 1.7615 0.058594 2.6689 0.30497 11.889 1.2796 23.231 5.9414 34.331 7.2312-17.624 11.397-33.879 12-53 0.04125-1.2156 0.0825-2.4312 0.125-3.6836 0.20792-12.488-1.0072-24.89-2.125-37.316h7c1.1065 3.6368 1.2109 7.1516 1.375 10.938 0.96047 17.985 4.4178 35.781 8.1836 53.359 0.42206 1.9865 0.84357 3.9731 1.265 5.9597 0.42059 1.9661 0.85178 3.93 1.2831 5.8938 0.2587 1.2137 0.5174 2.4273 0.78394 3.6777 0.23751 1.0922 0.47502 2.1843 0.71973 3.3096 0.37582 2.7607 0.39794 4.2977-0.61035 6.8623-2.0312 2.5078-2.0312 2.5078-4.5 5.125-3.1138 3.1828-3.1138 3.1828-5.5 6.875h-2c-0.25395 0.59039-0.50789 1.1808-0.76953 1.7891-1.7204 3.0913-4.1894 4.9698-6.8672 7.2344-1.6332 1.9539-1.6332 1.9539-1.2969 4.7266 1.1097 3.863 2.7133 7.3237 4.5586 10.875 0.3561 0.69642 0.71221 1.3928 1.0791 2.1104 5.2655 10.931 5.2655 10.931 12.499 20.468 1.7969 1.7969 1.7969 1.7969 1.7969 3.7969 0.99 0.33 1.98 0.66 3 1l5 5c3.525 2.8517 6.4954 5.0932 11 6v2c-23.185 0.62514-45.251-0.74476-63.348-17.125-1.6523-1.875-1.6523-1.875-1.6523-3.875-0.99-0.33-1.98-0.66-3-1v-2h-2c-11.957-13.665-17.181-31.862-22-49-0.51143 25.117 1.1349 49.597 13.426 72.008 1.5742 2.9922 1.5742 2.9922 1.5742 4.9922 0.99 0.33 1.98 0.66 3 1 1.1875 3.0625 1.1875 3.0625 2 6h2c3 3.4615 3 3.4615 3 6-11.617-2.0653-19.11-10.738-25.809-19.754-2.246-3.327-4.2533-6.7359-6.1914-10.246-0.3549-0.62318-0.70979-1.2464-1.0754-1.8884-5.7189-10.071-10.074-19.862-12.925-31.112-0.24766-0.92111-0.49531-1.8422-0.75047-2.7912-1.9996-7.8967-2.6554-15.166-2.5425-23.291 0.0042448-1.1802 0.0084897-2.3604 0.012863-3.5763 0.016607-3.7183 0.054225-7.436 0.092606-11.154 0.01507-2.5423 0.028754-5.0846 0.041016-7.627 0.03283-6.187 0.082846-12.374 0.14648-18.561h-2v2c-0.64066 0.25395-1.2813 0.50789-1.9414 0.76953-0.86496 0.34418-1.7299 0.68836-2.6211 1.043-0.91652 0.36352-1.833 0.72703-2.7773 1.1016-2.1201 0.86548-4.2091 1.807-6.2852 2.7734-3.9069 1.5193-7.213 1.9474-11.375 2.3125-0.14695 1.4328-0.14695 1.4328-0.29688 2.8945-0.95327 8.2425-2.4989 15.393-5.7031 23.105-1.0796 3.2387-1.2044 5.7916-1.3164 9.1992-0.041895 1.2085-0.083789 2.417-0.12695 3.6621-0.039316 1.2626-0.078633 2.5253-0.11914 3.8262-0.043184 1.2742-0.086367 2.5485-0.13086 3.8613-0.10619 3.1503-0.20824 6.3006-0.30664 9.4512h-1c-0.014583-0.77602-0.029165-1.552-0.044189-2.3516-0.074928-3.55-0.17144-7.099-0.26831-10.648-0.022559-1.2207-0.045117-2.4415-0.068359-3.6992-0.1776-5.9739-0.49178-10.95-2.9128-16.431-1.3617-3.6054-1.4329-7.4299-1.7063-11.245-0.64307-7.6278-1.6241-15.1-3.0352-22.625-0.80726-4.4368-1.0938-8.5161-0.96484-13 5.3892 0.56635 10.276 1.5569 15.5 3.0625 12.797 3.3676 24.172 2.4156 36.77-1.1055 4.8941-1.2556 9.6941-1.7436 14.73-1.957v-2h2v-2c1.4307-1.2455 2.9225-2.4211 4.4375-3.5625 4.6427-3.5992 8.7167-7.4862 12.75-11.75 1.8125-1.6875 1.8125-1.6875 3.8125-1.6875l1-4h2c0.2475-0.53625 0.495-1.0725 0.75-1.625 1.5472-2.9397 3.4073-5.611 5.25-8.375 0.71624-1.2664 1.4247-2.5372 2.125-3.8125 2.8018-4.7631 4.619-4.3018 9.875-4.1875z" fill="#ECC0CA"/>
<path transform="translate(340,667)" d="m0 0h2c0.46994 22.989-0.29401 44.154-8 66-0.60682 1.8325-1.2115 3.6656-1.8125 5.5l-1.1875 3.5h-2c-0.1173 0.87141-0.23461 1.7428-0.35547 2.6406-0.63755 3.323-1.6067 6.0157-2.957 9.1094-1.6453 3.8091-3.2202 7.6191-4.6875 11.5-1.5071 3.7796-3.3028 7.0605-5.5352 10.453-1.8316 2.8719-3.483 5.8277-5.1523 8.7969-2.5981 4.6195-5.323 9.1242-8.1885 13.583-4.0286 6.2732-7.4751 12.34-10.089 19.366-1.102 2.7156-2.5175 5.0477-4.0352 7.5508-0.74743 1.6495-1.457 3.3168-2.125 5-0.33258 0.825-0.66516 1.65-1.0078 2.5-1.6226 4.6776-1.984 8.871-1.9297 13.812 0.0090234 1.0686 0.018047 2.1373 0.027344 3.2383 0.011602 0.80824 0.023203 1.6165 0.035156 2.4492-5.4221-0.85425-7.8439-4.8252-11-9-8.604-12.652-12.385-27.957-12.188-43.062 6.4453e-4 -0.94166 0.0012891-1.8833 0.0019531-2.8535 0.046115-7.3631 0.25182-14.239 3.1855-21.084 0.40001-1.478 0.79521-2.9574 1.1875-4.4375 2.0149-6.9367 5.4639-13.195 8.8125-19.562h2c0.25523-0.88172 0.51047-1.7634 0.77344-2.6719 2.0226-5.4881 5.6835-9.7258 9.2266-14.328 0.73734-0.96809 1.4747-1.9362 2.2344-2.9336 4.0476-5.2073 4.0476-5.2073 5.7656-7.0664h2c0.26788-0.59007 0.53577-1.1801 0.81177-1.7881 1.2-2.2338 2.4544-3.7746 4.2-5.6025 0.5895-0.62302 1.179-1.246 1.7864-1.8879 0.6235-0.65057 1.247-1.3011 1.8894-1.9714 1.2795-1.352 2.5582-2.7049 3.8359-4.0586 0.60812-0.64308 1.2162-1.2862 1.8428-1.9487 2.4019-2.562 4.7109-5.1954 6.9932-7.8638 1.2525-1.4344 2.5406-2.8379 3.8438-4.2266 4.6427-4.9732 8.3678-9.8207 11.605-15.816 0.39316-0.60586 0.78633-1.2117 1.1914-1.8359h2c0.26812-0.88688 0.53625-1.7738 0.8125-2.6875 1.1126-3.1035 2.2895-5.6236 4.1875-8.3125z" fill="#C1B6CE"/>
<path transform="translate(364,645)" d="m0 0h2c0.79275 1.4161 1.5842 2.8329 2.375 4.25 0.44086 0.78891 0.88172 1.5778 1.3359 2.3906 0.63809 1.1679 0.63809 1.1679 1.2891 2.3594 0.38414 0.67547 0.76828 1.3509 1.1641 2.0469 0.83594 1.9531 0.83594 1.9531 0.83594 5.9531h2c6.7039 12.485 6.7039 12.485 7 19h2c1.4044 3.2522 2.7981 6.5052 4.1367 9.7852 2.0222 4.944 4.0993 9.7494 6.6133 14.465 2.2377 4.3351 2.9803 7.8945 3.25 12.75h2c5.8965 18.506 5.8965 18.506 4 23-2.5729 2.4172-5.219 4.293-8.2031 6.1758-2.651 1.7291-4.5927 3.5773-6.7969 5.8242-2.75 1.25-2.75 1.25-5 2v2c-1.5391 1.2969-1.5391 1.2969-3.625 2.75-2.8324 2.0389-5.3365 4.104-7.75 6.625l-2.625 2.625h-2c-0.20883 0.54785-0.41766 1.0957-0.63281 1.6602-1.8665 3.1943-4.4847 5.3736-7.2422 7.7773-3.7783 3.314-7.0006 6.6015-10.125 10.562-1.304 1.1792-2.6369 2.3273-4 3.4375-2.5176 2.1428-4.1436 3.7779-6 6.5625-1.8505 2.7758-3.4151 4.3284-5.9375 6.4375-3.2246 2.701-5.4595 5.3668-7.7695 8.8516-2.2979 3.0407-5.229 5.4624-8.293 7.7109h-1c-0.054445-2.2081-0.092993-4.4165-0.125-6.625-0.023203-1.2298-0.046406-2.4595-0.070312-3.7266 0.2721-5.0827 1.7996-9.1992 4.1953-13.648h2c0.14438-0.94875 0.28875-1.8975 0.4375-2.875 0.5625-3.125 0.5625-3.125 1.5625-5.125h2c0.10957-0.55688 0.21914-1.1138 0.33203-1.6875 1.1046-5.3164 2.6543-10.27 4.668-15.312 0.89759-2.3327 1.7933-4.666 2.6875-7 0.7705-2.0001 1.5412-4.0002 2.3125-6h2c0.11215-0.83789 0.2243-1.6758 0.33984-2.5391 0.72435-3.7975 1.8884-7.2094 3.2227-10.836 0.23396-0.64066 0.46793-1.2813 0.70898-1.9414 0.57151-1.5629 1.1494-3.1235 1.7285-4.6836h2l0.3125-2.625c0.6875-3.375 0.6875-3.375 2.0664-5.918 2.1489-4.5825 3.1496-9.2204 4.2461-14.145 0.42864-1.8791 0.85829-3.7581 1.2891-5.6367 0.18514-0.82589 0.37028-1.6518 0.56104-2.5027 0.5249-2.1731 0.5249-2.1731 1.5249-5.1731h2c0.055349-0.92748 0.1107-1.855 0.16772-2.8105 0.20856-3.4741 0.41944-6.948 0.63184-10.422 0.091085-1.4973 0.18127-2.9947 0.27051-4.4922 0.12917-2.1649 0.26168-4.3295 0.39478-6.4941 0.078552-1.2987 0.1571-2.5975 0.23804-3.9355 0.3072-3.9762 0.77229-7.8932 1.2971-11.846h2v-19z" fill="#EEC6CE"/>
<path transform="translate(877,1045)" d="m0 0c5.885 1.3241 9.9609 4.6533 14 9v2h2c1.2225 1.7617 2.3496 3.5896 3.4375 5.4375 0.71165 1.1899 1.4253 2.3787 2.1406 3.5664 0.38607 0.64211 0.77215 1.2842 1.1699 1.9458 2.2489 3.683 4.5939 7.3034 6.9395 10.925 0.67664 1.0508 0.67664 1.0508 1.3669 2.1228 2.1209 3.2744 4.2821 6.4893 6.5901 9.635 2.1532 2.9757 3.7701 6.0483 5.3555 9.3672 1.0063 1.7377 2.0279 3.4665 3.0625 5.1875 4.5276 7.7055 8.6567 15.612 12.764 23.548 1.0449 2.0155 2.1004 4.025 3.1582 6.0337 7.549 14.614 12.373 30.073 17.236 45.735 0.69031 2.2088 1.3961 4.4116 2.1118 6.6123 0.3648 1.137 0.72961 2.2739 1.1055 3.4453 0.30809 0.95004 0.61617 1.9001 0.93359 2.8789 0.62891 2.5586 0.62891 2.5586 0.62891 7.5586h-42c-0.2475-4.7438-0.495-9.4875-0.75-14.375-1.5626-26.398-5.5556-52.58-14.25-77.625-0.35224-1.0234-0.70447-2.0467-1.0674-3.1011-5.4543-16.102-5.4543-16.102-12.644-31.469-1.2891-2.4297-1.2891-2.4297-2.6602-5.7188-2.0775-4.945-4.8604-9.4868-7.5762-14.102-0.39252-0.68062-0.78504-1.3612-1.1895-2.0625-0.35796-0.61005-0.71591-1.2201-1.0847-1.8486-0.77856-1.6982-0.77856-1.6982-0.77856-4.6982z" fill="#D3C9DC"/>
<path transform="translate(621,1120)" d="m0 0c1.4166-0.027242 2.8333-0.046505 4.25-0.0625 1.1834-0.017402 1.1834-0.017402 2.3906-0.035156 2.2663 0.093803 4.1883 0.46525 6.3594 1.0977v2l8 2v2h4v2l2.75 0.875c2.572 0.89032 4.8635 1.8399 7.25 3.125v2l2.1875 0.6875c3.3982 1.5858 5.2648 3.5737 7.8125 6.3125l2.25 2.1875c4.0553 4.1474 7.9068 8.4689 11.75 12.812 0.55816 0.63035 1.1163 1.2607 1.6914 1.9102 3.3086 3.8365 3.3086 3.8365 3.3086 6.0898h2c1.5639 1.9262 2.9801 3.8308 4.375 5.875 0.40412 0.58991 0.80824 1.1798 1.2246 1.7876 4.6589 6.9827 7.6692 13.928 8.4004 22.337-7.08 3.54-13.758 2.0693-21 0v-2l-2.5-0.625c-4.5026-1.7689-7.7517-4.3631-11.5-7.375-0.82113-0.64711-1.6423-1.2942-2.4883-1.9609-16.274-12.891-16.274-12.891-21.512-19.602-1.897-2.4919-1.897-2.4919-4.3125-4.25-3.0743-2.5023-5.4861-5.291-8.0508-8.3008-1.681-1.9916-1.681-1.9916-3.8867-4.0742-2.0066-2.0783-3.2785-4.3377-4.75-6.8125l-2-1c-0.24794-6.5705 0.67612-12.57 2-19z" fill="#7D7080"/>
<path transform="translate(594.38 1126.9)" d="m0 0c1.311 0.013535 1.311 0.013535 2.6484 0.027344 0.65227 0.011602 1.3045 0.023203 1.9766 0.035156-0.1875 2.75-0.1875 2.75-1 6-0.73992 0.5775-1.4798 1.155-2.2422 1.75-3.399 2.7732-5.3693 5.8239-7.6953 9.5-0.87723 1.3513-1.7561 2.7016-2.6367 4.0508-0.62721 0.96414-0.62721 0.96414-1.2671 1.9478-2.2304 3.3714-4.6899 6.554-7.1587 9.7515-0.50145 0.68578-1.0029 1.3716-1.5195 2.0781-0.50918 0.69609-1.0184 1.3922-1.543 2.1094-0.66709 0.91846-0.66709 0.91846-1.3477 1.8555-2.0306 2.4996-4.3028 4.6901-6.5898 6.957-1.8557 1.9797-3.678 3.9892-5.5 6-12.908 14.246-12.908 14.246-21.688 17-3.5787 0-4.8946-0.94873-7.8125-3-2.3867-2.5586-2.3867-2.5586-4.6875-5.4375-0.76699-0.94746-1.534-1.8949-2.3242-2.8711-3.5952-4.8666-4.8203-8.5972-3.9883-14.691 2.9814-11.285 12.494-18.178 22-24l3-2h3v-2c1.744-1.0103 3.4955-2.0079 5.25-3l2.9531-1.6875c2.7969-1.3125 2.7969-1.3125 6.7969-1.3125v-2c3.2065-0.98533 6.4155-1.9621 9.625-2.9375 0.90363-0.27779 1.8073-0.55559 2.7383-0.8418 6.3852-1.9342 12.296-3.374 19.012-3.2832z" fill="#7C7080"/>
<path transform="translate(587.19 1116.7)" d="m0 0c1.8125-0.13672 1.8125-0.13672 4.8125 0.30078 2.4375 2.5 2.4375 2.5 4 5-6.5314 3.7681-12.549 5.0562-20 6v3c-1.7908 0.5031-3.5827 1.0024-5.375 1.5-0.99773 0.27844-1.9955 0.55688-3.0234 0.84375-2.6016 0.65625-2.6016 0.65625-4.6016 0.65625v2l-3.6875 1.3125c-3.3585 1.2483-6.2602 2.8023-9.3125 4.6875h-2v2c-0.87785 0.41766-1.7557 0.83531-2.6602 1.2656-8.6922 4.5139-19.315 11.305-23.277 20.672-1.5358 5.0545-2.3551 9.495 0.074219 14.32 3.7642 5.8292 8.0514 11.868 13.863 15.742v2h8v2c-6.3166 0.20304-12.632 0.34302-18.951 0.43945-2.1488 0.040203-4.2973 0.094777-6.4453 0.16406-3.091 0.097196-6.179 0.14244-9.2712 0.17773-0.95851 0.04129-1.917 0.082581-2.9046 0.12512-2.7014 0.0018126-4.8538-0.078883-7.4274-0.90637-2.3397-2.3934-3.6423-4.9679-5-8-0.59168-1.0132-1.1834-2.0264-1.793-3.0703-3.1595-7.6687-1.6805-17.2 0.79297-24.93h2l0.75-2.375c1.4039-2.9482 2.2568-3.5275 5.25-4.625v-2c1.9442-1.6707 3.887-3.2195 5.9375-4.75 0.59321-0.44811 1.1864-0.89622 1.7976-1.3579 18.522-13.892 18.522-13.892 25.265-13.892v-2c4.9899-2.6798 9.7088-4.6172 15.152-6.1484 4.5532-1.3616 8.9927-3.0316 13.453-4.668 8.0923-2.8216 16.12-4.3208 24.582-5.4844z" fill="#E88C91"/>
<path transform="translate(954,684)" d="m0 0c3.9552 3.7151 7.0197 7.599 10 12.125 0.43715 0.66089 0.87431 1.3218 1.3247 2.0027 3.4999 5.3962 6.2929 10.893 8.6753 16.872 0.36738 0.87527 0.73477 1.7505 1.1133 2.6523 1.955 4.7275 3.5147 9.4137 4.8867 14.348 0.3416 1.1486 0.6832 2.2971 1.0352 3.4805 3.0136 10.874 3.8137 21.266 3.9648 32.52 0.015146 1.0353 0.030293 2.0706 0.045898 3.1372 0.040219 3.2877 0.064387 6.5749 0.079102 9.8628 0.004834 1.0138 0.009668 2.0275 0.014648 3.072-0.016044 7.0188-0.46005 13.943-1.1396 20.928h-2v4h-2c-0.28875 0.59812-0.5775 1.1962-0.875 1.8125-1.125 2.1875-1.125 2.1875-3.125 5.1875h-2c-0.2475 0.59812-0.495 1.1962-0.75 1.8125-1.4307 2.5038-2.8192 3.6682-5.25 5.1875h-2v17c-1.6981-3.3962-2.2532-4.6259-2.4922-8.1328-0.063245-0.79777-0.12649-1.5955-0.19165-2.4175-0.063084-0.84965-0.12617-1.6993-0.19116-2.5747-0.73313-8.5576-2.2053-16.715-4.2227-25.055-0.29777-1.2607-0.59555-2.5214-0.90234-3.8203-0.28746-0.99258-0.57492-1.9852-0.87109-3.0078-0.16134-3.7451 1.0024-5.5558 2.7715-8.7773 9.8002-19.74 9.0591-51.303 3.1699-72.133-0.65389-1.8829-1.3403-3.7554-2.082-5.6055-1.589-3.9819-2.6912-8.1097-3.8906-12.223-1.0256-3.3219-1.0256-3.3219-2.7891-6.4766-1.3086-2.7773-1.3086-2.7773-0.30859-5.7773z" fill="#E9C2CB"/>
<path transform="translate(565,1052)" d="m0 0c3.8107 0.62935 7.0315 1.7608 10.562 3.3125 11.408 4.8779 11.408 4.8779 23.5 7.3125 3.9375 0.375 3.9375 0.375 6.9375 2.375 3.0716 0.26141 5.1994 0.43905 7.9375-1.0625 2.0625-0.9375 2.0625-0.9375 5.1875-0.375 9.1141 1.029 18.497-4.3376 26.727-7.8652 4.5545-1.8884 8.1145-3.199 13.148-2.6973-2.311 4.3743-3.8912 7.1663-8 10l-1 3h-2c-0.22688 0.55688-0.45375 1.1138-0.6875 1.6875-1.6819 2.9634-3.8767 4.9288-6.3125 7.3125-1.2897 1.3071-1.2897 1.3071-2.6055 2.6406-0.85207 0.86109-1.7041 1.7222-2.582 2.6094-1.2897 1.3071-1.2897 1.3071-2.6055 2.6406-2.207 2.1094-2.207 2.1094-4.207 3.1094l-1 3c-1.4602 1.1947-2.9262 2.3836-4.4297 3.5234-1.7646 1.6593-2.4151 3.1787-3.4453 5.3516-1.1953 1.7734-1.1953 1.7734-3.125 3.125-6.7412 1.0223-13.191 0.82551-19.012-2.957-5.6041-5.4416-5.6041-5.4416-6.5234-9.2734-0.1534-0.58395-0.3068-1.1679-0.46484-1.7695l-3-1c-2.0078-2.1797-2.0078-2.1797-4.125-4.875-0.70383-0.8843-1.4077-1.7686-2.1328-2.6797-1.7422-2.4453-1.7422-2.4453-2.7422-5.4453-0.99855-1.0014-1.9988-2.0012-3-3-1.1803-1.7691-2.3233-3.5635-3.4375-5.375-1.8114-2.942-3.6002-5.6712-5.7852-8.3516-1.7773-2.2734-1.7773-2.2734-1.7773-4.2734z" fill="#7E7080"/>
<path transform="translate(747,332)" d="m0 0c4.7918 2.3959 5.853 5.0039 8 9.625 0.33 0.68707 0.66 1.3741 1 2.082 0.66914 1.3932 1.3332 2.7888 1.9922 4.1868 1.0108 2.1124 2.0672 4.1968 3.1328 6.282 1.5416 3.0666 2.7866 6.1262 3.875 9.3867 1.3426 3.8232 2.8692 7.105 4.9883 10.539 1.8022 3.3817 2.9424 7.0223 4.1797 10.641 0.62995 2.1954 0.62995 2.1954 1.832 3.2578 1.1432-3.7553 1.2859-7.4568 1.5-11.363 0.040605-0.71021 0.081211-1.4204 0.12305-2.1521 0.12928-2.2655 0.2536-4.5312 0.37695-6.7971 0.12363-2.2551 0.24846-4.5101 0.37695-6.7649 0.079726-1.4001 0.15672-2.8003 0.23047-4.2007 0.24377-4.2947 0.73251-8.4764 1.3926-12.722 4.0521 5.2854 4.4523 9.6125 4.9863 16.117 0.54901 5.6164 1.6934 10.982 2.9785 16.465 2.0015 8.6833 3.1243 17.227 3.7852 26.105 0.061039 0.76613 0.12208 1.5323 0.18497 2.3216 1.911 24.596 1.3366 49.342 1.065 73.991h-1l-1-7c-0.99-0.33-1.98-0.66-3-1-2.1687-5.9406-2.9145-12.186-3.8555-18.416-0.69027-4.3828-1.6158-8.399-3.1445-12.584-2.7065-8.1414-4.7381-16.15-6.1914-24.59-0.82913-3.4967-2.2038-6.214-3.8086-9.4102v-4h-2c-0.15855-0.58266-0.31711-1.1653-0.48047-1.7656-1.6735-5.8805-3.794-11.414-6.1992-17.031-1.86-4.5125-3.4388-9.113-5.0508-13.719-1.624-4.4573-3.4615-8.8062-5.3516-13.156-0.91797-2.3281-0.91797-2.3281-0.91797-4.3281h-2l0.125 2.875c-0.125 3.125-0.125 3.125-2.125 5.125v-28z" fill="#EEC9D3"/>
<path transform="translate(408,330)" d="m0 0h1c-0.0088824 0.5636-0.017765 1.1272-0.026916 1.7079-0.08965 5.9553-0.1493 11.91-0.19281 17.866-0.019909 2.212-0.047046 4.4239-0.082031 6.6357-0.46798 21.615-0.46798 21.615 5.957 42.005 1.7501 3.6252 1.1935 5.9273 0.34473 9.7854h-2l-2 16h-2c0.037383 1.0828 0.074766 2.1656 0.11328 3.2812-0.0036307 5.509-0.97107 10.807-1.9258 16.219-0.18015 1.0499-0.36029 2.0999-0.5459 3.1816-1.461 8.4556-3.0064 16.895-4.6416 25.318l-2-1c-3.6734-13.683-2.2795-29.583-2.3125-43.625-0.0032831-1.1448-0.0065662-2.2897-0.0099487-3.4692-0.017544-19.001 1.2375-37.477 3.8439-56.281 0.78958-5.9815 1.3111-11.987 1.7944-18 0.33259-3.6831 0.91664-6.3929 2.6841-9.625 0.41207-2.3228 0.41207-2.3228 0.5625-4.6875 0.33786-4.2129 0.33786-4.2129 1.4375-5.3125z" fill="#EDCAD5"/>
<path transform="translate(416,651)" d="m0 0c2.6545 2.2563 4.1799 4.9035 5.8359 7.9375 0.81441 1.443 1.6786 2.8585 2.5781 4.25 5.2414 8.1713 8.9125 17.221 10.586 26.812h2c1.6094 4.619 2.8902 9.2572 4.0625 14 0.17338 0.68578 0.34676 1.3716 0.52539 2.0781 0.98401 3.9511 1.9128 7.878 2.4121 11.922l-1 1c-1.8082-0.061116-3.6164-0.12651-5.4233-0.2168-8.0909-0.55163-8.0909-0.55163-14.952 3.2168-0.86625 0.99-1.7325 1.98-2.625 3h-2c0.0044412-0.63512 0.0088824-1.2702 0.013458-1.9246 0.044581-6.6684 0.074551-13.337 0.096405-20.005 0.0099975-2.4818 0.0236-4.9636 0.041016-7.4453 0.024525-3.5872 0.035667-7.1742 0.044434-10.761 0.010323-1.0922 0.020645-2.1844 0.031281-3.3097 9.5683e-4 -6.7148-0.61757-13.077-1.7838-19.692-0.57014-3.684-0.58866-7.143-0.44284-10.861z" fill="#EBC0CA"/>
<path transform="translate(639,344)" d="m0 0c1.3651 0.47566 1.3651 0.47566 2.7578 0.96094 3.4153 1.0946 6.6873 1.6125 10.242 2.0391 1.2544 8.7705 1.1956 17.536 1.1875 26.375 7.251e-4 0.79926 0.0014502 1.5985 0.0021973 2.422-0.0011892 11.839-0.41513 23.478-2.1897 35.203h-2l0.0625 3.1875c-0.051468 3.1395-0.32767 5.7813-1.0625 8.8125h-10c-0.027073-3.3751-0.046874-6.7499-0.0625-10.125-0.0083789-0.95133-0.016758-1.9027-0.025391-2.8828-0.004834-1.3922-0.004834-1.3922-0.0097656-2.8125-0.0052368-0.84836-0.010474-1.6967-0.015869-2.5708 0.11353-2.6089 0.11353-2.6089 0.61353-5.1851 0.74835-5.1244 0.62178-10.213 0.59766-15.385-0.001415-1.1457-0.0028299-2.2914-0.0042877-3.4718-0.0055827-3.6474-0.018132-7.2948-0.030869-10.942-0.0050172-2.4779-0.0095798-4.9557-0.013672-7.4336-0.011006-6.0638-0.027727-12.128-0.048828-18.191z" fill="#EDC9D4"/>
<path transform="translate(681,1141)" d="m0 0h2v2c0.73734-0.25137 1.4747-0.50273 2.2344-0.76172 2.7656-0.23828 2.7656-0.23828 4.9688 1.4922 0.67547 0.81082 1.3509 1.6216 2.0469 2.457 0.68578 0.79793 1.3716 1.5959 2.0781 2.418 1.6719 2.3945 1.6719 2.3945 2.1562 4.5703 0.17016 0.60199 0.34031 1.204 0.51562 1.8242 1.3305 0.67229 2.6643 1.3382 4 2 1.7461 2.2852 1.7461 2.2852 3.4375 5.0625 0.60199 0.98355 1.204 1.9671 1.8242 2.9805 1.9479 3.3137 3.847 6.6465 5.6758 10.027 0.87781 1.5943 1.8354 3.1443 2.8125 4.6797 2.4864 4.4755 2.3633 9.0354 2.3125 14.062-0.0090234 1.1614-0.018047 2.3229-0.027344 3.5195-0.011602 0.88043-0.023203 1.7609-0.035156 2.668-3.2708 0.058048-6.5414 0.093612-9.8125 0.125-0.92877 0.016758-1.8575 0.033516-2.8145 0.050781-0.89268 0.0064453-1.7854 0.012891-2.7051 0.019531-0.82218 0.010474-1.6444 0.020947-2.4915 0.031738-2.1765-0.22705-2.1765-0.22705-5.1765-2.2271 3.465-0.495 3.465-0.495 7-1 1.3196-4.8385 1.274-9.3319-0.92505-13.937-1.1955-2.0444-2.4564-4.0248-3.7625-6.0002-0.44972-0.70077-0.89944-1.4015-1.3628-2.1235-2.4001-3.7048-4.8912-7.3068-7.5747-10.814-2.375-3.125-2.375-3.125-2.375-5.125l-1.875-0.1875c-2.125-0.8125-2.125-0.8125-3.3125-3.0625-0.76081-2.5751-1.359-5.1044-1.8125-7.75-0.99-0.33-1.98-0.66-3-1v-2h5l1-4z" fill="#E98C90"/>
<path transform="translate(704,730)" d="m0 0h3c0.042721 1.6661 0.040638 3.3338 0 5l-1 1c-0.18176 1.6764-0.18176 1.6764-0.36719 3.3867-1.2302 11.274-1.2302 11.274-5.0664 14.938-2.8298 1.5243-5.5137 2.6761-8.5664 3.6758-0.92426 0.33387-1.8485 0.66773-2.8008 1.0117-4.7278 1.4605-9.5464 2.4078-14.391 3.4004-4.4927 0.95728-8.652 2.2076-12.924 3.8899-2.8215 1.0452-5.6978 1.6837-8.6343 2.323-1.088 0.23977-2.1759 0.47953-3.2969 0.72656-0.97453 0.21398-1.9491 0.42797-2.9531 0.64844-1.3349 0.32717-2.669 0.65755-4 1 8.8513-9.7365 21.38-16.532 32.836-22.766 2.981-1.7003 5.7887-3.6234 8.6289-5.5469 3.0836-2.0525 6.2055-4.039 9.3477-6 1.0789-0.67676 2.1579-1.3535 3.2695-2.0508 2.4188-1.3567 4.2157-2.1853 6.918-2.6367v-2z" fill="#E0B4B6"/>
<path transform="translate(495,348)" d="m0 0h2c-0.034805 1.0905-0.034805 1.0905-0.070312 2.2031-0.018047 1.0055-0.036094 2.0109-0.054688 3.0469-0.023203 0.97453-0.046406 1.9491-0.070312 2.9531 0.51711 10.053 3.0392 19.78 5.5703 29.484 0.29133 1.1582 0.58266 2.3164 0.88281 3.5098 1.5412 5.952 3.2517 11.496 5.9946 17.009 0.74756 1.7937 0.74756 1.7937 0.74756 4.7937h2c0.23461 1.0029 0.46922 2.0058 0.71094 3.0391 1.2289 4.3022 3.4106 7.6668 5.9141 11.336 4.375 6.5357 4.375 6.5357 4.375 7.625h-11l-1-3-3-1c-1.4478-2.8956-2-4.7419-2-8h-2l-0.6875-2.75c-0.91652-3.2956-2.2332-6.2205-3.6875-9.3125-7.7812-18.394-10.096-41.713-4.625-60.938z" fill="#EDCBD4"/>
<path transform="translate(603,1154)" d="m0 0h3c3.197 5.5471 4.5208 11.369 6 17.562 0.26055 1.0689 0.5211 2.1377 0.78955 3.239 0.74439 3.0644 1.4787 6.1311 2.2104 9.1985 0.35145 1.4532 0.703 2.9063 1.0547 4.3594 1.9453 8.1888 1.9453 8.1888 1.9453 11.641h-22c0.8125-6.5 0.8125-6.5 1.0989-8.769 0.56371-4.4732 1.1054-8.9485 1.6316-13.426 0.12721-1.0628 0.25443-2.1257 0.3855-3.2207 0.25252-2.1101 0.50022-4.2208 0.74268-6.332 0.60211-4.9801 1.2803-9.5512 3.1414-14.252z" fill="#7F7080"/>
<path transform="translate(548,798)" d="m0 0h2c0.029358 4.2917 0.046918 8.5833 0.0625 12.875 0.0083789 1.204 0.016758 2.408 0.025391 3.6484 0.018733 6.8938-0.2118 13.636-1.0879 20.477h-2l-1 9h-2l-0.25 2c-0.98277 3.9311-2.4683 7.6325-4.75 11l-3 1c-1.4813-2.9627-1.3799-6.0555-1.5625-9.3125-0.040283-0.71696-0.080566-1.4339-0.12207-2.1726-0.11457-2.1713-0.2172-4.3428-0.31543-6.5149-0.05543-1.1756-0.11086-2.3512-0.16797-3.5625-0.23075-9.1419 0.87894-17.744 6.168-25.438l1-3h2c0.30938-0.94875 0.61875-1.8975 0.9375-2.875 1.0625-3.125 1.0625-3.125 2.0625-5.125h2v-2z" fill="#E1D3E0"/>
<path transform="translate(624,1163)" d="m0 0c5.4608 3.9715 9.4922 9.0421 13.828 14.156 3.1786 3.7038 6.2766 6.871 10.172 9.8438 4.4067 4.0677 7.2687 8.0249 11 13h-29c-2.2008-13.205-2.2008-13.205-2.4375-18.125-0.34712-4.8918-1.3521-9.1853-2.9414-13.816-0.62109-2.0586-0.62109-2.0586-0.62109-5.0586z" fill="#7E6F80"/>
<path transform="translate(358,963)" d="m0 0v60h-4c-1.712-9.046-2.2893-17.86-2.2058-27.048 0.018355-2.0817 0.020508-4.1629 0.020264-6.2446 0.052414-21.184 0.052414-21.184 3.1855-25.395 2-1.3125 2-1.3125 3-1.3125z" fill="#7F7483"/>
<path transform="translate(699,803)" d="m0 0c3.6147 1.4946 5.6444 3.5608 8.1875 6.5 1.0422 1.1911 1.0422 1.1911 2.1055 2.4062 2.4613 3.0188 2.8301 4.6275 2.8047 8.4453-0.0032227 0.85078-0.0064453 1.7016-0.0097656 2.5781-0.0083789 0.88945-0.016758 1.7789-0.025391 2.6953-0.0045117 0.89719-0.0090234 1.7944-0.013672 2.7188-0.011802 2.2188-0.028267 4.4375-0.048828 6.6562-1.9219-0.37109-1.9219-0.37109-4-1-1.25-2.0625-1.25-2.0625-2-4h-2c-2.365-2.9911-3.9155-5.0286-4.25-8.875l0.25-2.125-2-1c0.12568-1.0306 0.12568-1.0306 0.25391-2.082 0.10184-0.90105 0.20367-1.8021 0.30859-2.7305 0.10441-0.89332 0.20883-1.7866 0.31641-2.707 0.27768-2.6142 0.27768-2.6142-0.87891-5.4805l1-2z" fill="#E2D4E0"/>
<path transform="translate(584,1175)" d="m0 0c-0.14244 2.6669-0.28887 5.3335-0.4375 8-0.039316 0.74379-0.078633 1.4876-0.11914 2.2539-0.041895 0.74121-0.083789 1.4824-0.12695 2.2461-0.036658 0.67031-0.073315 1.3406-0.11108 2.0312-0.29114 3.5006-0.76963 6.9832-1.2053 10.469h-19c1.7206-3.4411 2.4049-4.5689 5.0625-6.9375 3.9677-3.8093 6.9039-8.1368 9.9163-12.707 3.5587-5.3557 3.5587-5.3557 6.0212-5.3557z" fill="#806F7F"/>
<path transform="translate(746,1084)" d="m0 0c5.0044 0.65992 9.455 2.0852 14.188 3.75 9.4799 3.2579 19.093 5.8148 28.812 8.25l-1 5h-2v2c-4.5838-0.66626-8.5639-2.4217-12.75-4.3125-1.0586-0.47095-1.0586-0.47095-2.1387-0.95142-2.039-0.90786-4.0752-1.8218-6.1113-2.7361-1.8331-0.81312-3.6663-1.6258-5.5-2.4375l-3.5-1.5625v-2l-3.3125-0.4375c-3.6875-0.5625-3.6875-0.5625-6.6875-1.5625v-3z" fill="#6B616F"/>
<path transform="translate(668,1142)" d="m0 0c0.47051 0.43312 0.94102 0.86625 1.4258 1.3125 0.93393 0.83531 0.93393 0.83531 1.8867 1.6875 0.61488 0.55688 1.2298 1.1138 1.8633 1.6875 1.8555 1.6045 1.8555 1.6045 4.8242 1.3125 1.0291 2.5727 2.0431 5.1264 2.9375 7.75 0.35062 0.7425 0.70125 1.485 1.0625 2.25 0.99 0.33 1.98 0.66 3 1 1.3242 1.6445 1.3242 1.6445 2.6875 3.8125 0.51562 0.80566 1.0312 1.6113 1.5625 2.4414 0.5775 0.90621 1.155 1.8124 1.75 2.7461 1.3922 2.0857 2.7882 4.169 4.1875 6.25 1.2809 1.91 2.5524 3.8263 3.8125 5.75 0.55688 0.82629 1.1138 1.6526 1.6875 2.5039 1.4908 2.8353 1.8689 5.0019 2.125 8.1836 0.13342 1.4289 0.13342 1.4289 0.26953 2.8867-0.082031 2.4258-0.082031 2.4258-2.082 4.4258-7.9341 1.3935-16.365 2.1315-23.312-2.5625-0.55688-0.47438-1.1138-0.94875-1.6875-1.4375-0.99-0.33-1.98-0.66-3-1l-1-2-2-0.875c-2-1.125-2-1.125-2.625-3.1953-0.18562-0.9552-0.18562-0.9552-0.375-1.9297 0.77086 0.49371 1.5417 0.98742 2.3359 1.4961 1.5043 0.961 1.5043 0.961 3.0391 1.9414 1.4966 0.95713 1.4966 0.95713 3.0234 1.9336 2.4599 1.5979 2.4599 1.5979 4.6016 2.6289v2c2.583 0.19522 5.166 0.38144 7.75 0.5625 0.72961 0.056074 1.4592 0.11215 2.2109 0.16992 3.5886 0.24468 6.5893 0.26424 10.039-0.73242-0.97099-10.067-4.847-17.914-11.227-25.727-1.7734-2.2734-1.7734-2.2734-1.7734-4.2734h-2c-1.4381-1.5694-2.8003-3.2087-4.125-4.875-1.193-1.4947-1.193-1.4947-2.4102-3.0195-0.8134-1.0248-1.6268-2.0496-2.4648-3.1055-0.78246-0.95262-1.5649-1.9052-2.3711-2.8867-1.0847-1.3245-1.0847-1.3245-2.1914-2.6758-0.66129-0.80566-1.3226-1.6113-2.0039-2.4414-1.4336-1.9961-1.4336-1.9961-1.4336-3.9961z" fill="#D59098"/>
<path transform="translate(712,792)" d="m0 0c2.407 3.6812 1.8292 5.7786 1 10-0.38833 3.9957-0.69557 7.9971-1 12-3.4041-1.1347-4.2428-2.1723-6.5-4.875-2.4883-2.9639-2.4883-2.9639-5.1875-5.7305-1.3125-1.3945-1.3125-1.3945-1.8125-3.832 0.5-2.5625 0.5-2.5625 2.5-4.8125 3.833-2.2359 6.597-2.4515 11-2.75z" fill="#FCF5F7"/>
<path transform="translate(669,1072)" d="m0 0c0 4.0334-1.6088 5.8352-4 9h-2l-2 4h-2v2c-1.6094 1.7266-1.6094 1.7266-3.75 3.625-1.0441 0.94746-1.0441 0.94746-2.1094 1.9141-2.1406 1.4609-2.1406 1.4609-6.1406 1.4609l-1 3h-2l-1 3-2 1v4c0.86045 0.20303 0.86045 0.20303 1.7383 0.41016 2.2018 0.57422 4.3102 1.2528 6.4492 2.0273 0.6948 0.24621 1.3896 0.49242 2.1055 0.74609 1.707 0.81641 1.707 0.81641 2.707 2.8164 1.8801 1.1222 1.8801 1.1222 4.0625 2.125 0.73348 0.3532 1.467 0.70641 2.2227 1.0703 0.5659 0.26555 1.1318 0.53109 1.7148 0.80469v2h2v2c-2.9288-0.6276-5.361-1.5862-8-3v-2l-2.875-0.9375c-3.125-1.0625-3.125-1.0625-5.125-2.0625v-2l-2-0.3125c-3.8384-0.87964-7.331-2.2572-11-3.6875 7.1541-8.6602 14.934-16.354 23.805-23.25 2.624-2.0917 4.8954-4.3107 7.1953-6.75l3-3z" fill="#8F6D7A"/>
<path transform="translate(561.36 1136.3)" d="m0 0c0.54141 0.22559 1.0828 0.45117 1.6406 0.68359-0.74766 0.39832-1.4953 0.79664-2.2656 1.207-0.98484 0.5298-1.9697 1.0596-2.9844 1.6055-0.97453 0.52207-1.9491 1.0441-2.9531 1.582-2.7698 1.493-2.7698 1.493-4.9062 3.3047-1.8906 1.3008-1.8906 1.3008-5.8906 1.3008v2h-2v2c-0.94875 0.2475-1.8975 0.495-2.875 0.75-3.1927 0.9203-3.1927 0.9203-4.375 3.25-0.2475 0.66-0.495 1.32-0.75 2l-2 2h-3c-0.26812 0.70125-0.53625 1.4025-0.8125 2.125-1.1875 2.875-1.1875 2.875-2.6875 5.75-1.6173 3.3693-2.5618 6.5167-3.5 10.125 0.99 0.33 1.98 0.66 3 1v7c-4.8887-4.731-4.8887-4.731-5.3125-9.5625 0.16224-7.4899 3.4-12.811 8.5-18.125 4.2618-4.0294 8.8228-7.2565 13.812-10.312l3-2h3v-2c1.7412-1.0357 3.4934-2.0531 5.25-3.0625 0.97453-0.56848 1.9491-1.137 2.9531-1.7227 2.7969-1.2148 2.7969-1.2148 5.1562-0.89844z" fill="#906C79"/>
<path transform="translate(682,1161)" d="m0 0 3 2v2h2c1.5639 1.9262 2.9801 3.8308 4.375 5.875 0.60618 0.88486 0.60618 0.88486 1.2246 1.7876 4.6589 6.9827 7.6692 13.928 8.4004 22.337-7.08 3.54-13.758 2.0693-21 0v-2c-1.98-0.66-3.96-1.32-6-2v-3c1.98 0.33 3.96 0.66 6 1l1 3c5.5847 1.7951 11.172 2.4873 17 3-0.31083-1.7503-0.62373-3.5002-0.9375-5.25-0.17402-0.97453-0.34805-1.9491-0.52734-2.9531-0.1766-0.92297-0.3532-1.8459-0.53516-2.7969-0.12504-0.75797-0.25008-1.5159-0.37891-2.2969-0.20496-0.56203-0.40992-1.1241-0.62109-1.7031-0.99-0.33-1.98-0.66-3-1v-4h-3l-1.3125-3.4375-1.6875-3.5625c-0.99-0.33-1.98-0.66-3-1l-1-6z" fill="#936E79"/>
<path transform="translate(579,1156)" d="m0 0c1.1406 3.6875 1.1406 3.6875-0.125 6.5-2.0392 2.7189-4.0851 4.5685-6.875 6.5h-2c-0.085078 0.75281-0.17016 1.5056-0.25781 2.2812-0.89558 3.2807-1.9657 4.1597-4.6172 6.2188-2.4086 1.9746-4.0136 3.3144-5.625 6-3.4343 5.7238-9.7411 10.228-15.5 13.5h-4v-2c1.4357-0.81567 2.8736-1.6274 4.3125-2.4375 0.80051-0.45246 1.601-0.90492 2.4258-1.3711 2.2617-1.1914 2.2617-1.1914 5.2617-2.1914 0.69023-1.3213 1.3537-2.6567 2-4 1.1848-1.272 2.4191-2.4989 3.6875-3.6875 3.7259-3.6037 6.8242-7.4355 9.8672-11.625 0.47695-0.55688 0.95391-1.1138 1.4453-1.6875h2c0.26555-0.57234 0.53109-1.1447 0.80469-1.7344 1.2521-2.3732 2.6889-4.3878 4.3203-6.5156 0.53883-0.70641 1.0777-1.4128 1.6328-2.1406 0.40992-0.53109 0.81984-1.0622 1.2422-1.6094z" fill="#D38F98"/>
<path transform="translate(362,910)" d="m0 0h5l-1 26c-0.99-0.33-1.98-0.66-3-1 0.22688-0.59812 0.45375-1.1962 0.6875-1.8125l0.3125-2.1875c-1.3544-1.7719-1.3544-1.7719-3-3l-2 3c1.7336-19.734 1.7336-19.734 3-21z" fill="#746472"/>
<path transform="translate(567,1168)" d="m0 0 2 1c-4.5857 5.7503-9.1421 11.416-14.457 16.512-1.3841 1.335-2.6886 2.7514-3.9805 4.1758-4.2799 3.8623-8.2769 6.1084-14.062 6.625-5.2888-1.9833-8.0938-5.9331-11.5-10.312l4-1v3h2v2h2v2c1.5832 0.027193 3.1666 0.046483 4.75 0.0625 0.88172 0.011602 1.7634 0.023203 2.6719 0.035156 2.4091-0.091256 4.335-0.21356 6.5781-1.0977l1-3c1.6667-1.3333 3.3333-2.6667 5-4l1-3 2.9375-2.4375c2.6754-2.2386 3.8866-3.3875 5.0625-6.5625h2v-2l3-2z" fill="#8E6C77"/>
<path transform="translate(512,1148)" d="m0 0c-1.5371 3.9873-4.0415 5.8592-7.375 8.4375-6.7282 5.1293-6.7282 5.1293-10.375 12.5-0.10949 1.3523-0.18723 2.7072-0.25 4.0625-0.12955 1.6068-0.12955 1.6068-0.26172 3.2461-0.3642 7.5188 0.067845 12.083 5.0469 17.887 1.2148 1.8672 1.2148 1.8672 0.89844 4.1094-0.22559 0.58008-0.45117 1.1602-0.68359 1.7578-0.77443-1.206-1.5443-2.415-2.3125-3.625-0.42926-0.67289-0.85852-1.3458-1.3008-2.0391-5.2085-8.7737-5.8617-17.24-3.3867-27.211l1-3.125h2c0.2475-0.78375 0.495-1.5675 0.75-2.375 1.4039-2.9482 2.2568-3.5275 5.25-4.625v-2c1.8984-1.7266 1.8984-1.7266 4.375-3.625 0.81211-0.63164 1.6242-1.2633 2.4609-1.9141 2.1641-1.4609 2.1641-1.4609 4.1641-1.4609z" fill="#D6919A"/>
<path transform="translate(656,1052)" d="m0 0c5.4398 0.63946 10.14 2.4275 15.188 4.4375 0.80631 0.3126 1.6126 0.6252 2.4434 0.94727 3.4099 1.3407 6.3014 2.57 9.3691 4.6152-0.99 0.33-1.98 0.66-3 1l-1 2h-2v2c-2.5 1.625-2.5 1.625-5 3v-4l2-1v-4l-7-2v-2c-6.1017 0.76669-6.1017 0.76669-10.938 4.125-0.35062 0.61875-0.70125 1.2375-1.0625 1.875h-2l-1 3h-2c0.47415-4.2674 2.9965-6.143 6-9l2-3-2-2z" fill="#D2949A"/>
<path transform="translate(621,1120)" d="m0 0c1.4166-0.027242 2.8333-0.046505 4.25-0.0625 1.1834-0.017402 1.1834-0.017402 2.3906-0.035156 2.2663 0.093803 4.1883 0.46525 6.3594 1.0977v2l8 2v2h4v2c-4.6874-0.90724-9.3419-1.9547-14-3v-3c-4.455-0.99-4.455-0.99-9-2-0.24858 2.7703-0.47453 5.5394-0.6875 8.3125-0.072832 0.78568-0.14566 1.5714-0.2207 2.3809-0.054785 0.75732-0.10957 1.5146-0.16602 2.2949-0.057605 0.6965-0.11521 1.393-0.17456 2.1106 0.32735 2.5015 1.4696 3.1916 3.2488 4.9011v3c0.99 0.33 1.98 0.66 3 1l-2 2c-0.33773-0.49371-0.67547-0.98742-1.0234-1.4961-0.44602-0.64066-0.89203-1.2813-1.3516-1.9414-0.44086-0.63809-0.88172-1.2762-1.3359-1.9336-1.2107-1.7663-1.2107-1.7663-3.2891-2.6289-0.24794-6.5705 0.67612-12.57 2-19z" fill="#926E78"/>
<path transform="translate(667,1072)" d="m0 0 2 1c-1.6234 1.7088-3.2932 3.3745-5 5h-2l-1 3c-1.4918 1.3091-3.0456 2.548-4.625 3.75-7.7214 6.1344-14.502 13.196-21.375 20.25l-1-3c1.375-1.5 1.375-1.5 3-3h2l0.125-1.6875c1.3259-3.5042 3.966-5.0566 6.875-7.3125 2.035-1.8904 2.035-1.8904 3.3125-4.0625 2.1068-2.4189 3.5624-2.5997 6.6875-2.9375v-2c1.6445-1.6562 1.6445-1.6562 3.8125-3.5 1.0615-0.91266 1.0615-0.91266 2.1445-1.8438 2.043-1.6562 2.043-1.6562 5.043-3.6562z" fill="#D69199"/>
<path transform="translate(648,1066)" d="m0 0 2 1c-0.25795 3.4824-1.2156 4.1881-3.9375 6.5625l-3.0625 2.4375-2 3h-3v2h-2l-1 3c-1.6234 1.7088-3.2932 3.3745-5 5l-1.6875 1.8125c-1.3125 1.1875-1.3125 1.1875-3.3125 1.1875l-2 5h-2l-2 4-1-3c1.2848-1.5059 2.578-3.0046 3.875-4.5 1.0789-1.253 1.0789-1.253 2.1797-2.5312 0.64195-0.64969 1.2839-1.2994 1.9453-1.9688h2c0.088945-0.59039 0.17789-1.1808 0.26953-1.7891 0.92158-2.7894 2.1504-3.746 4.418-5.5859 2.7071-2.2503 5.2528-4.5196 7.6875-7.0625 2.625-2.5625 2.625-2.5625 4.625-2.5625l3-6z" fill="#D69299"/>
<path transform="translate(585,1172)" d="m0 0c0.099089 9.3915 0.12999 18.657-1 28h-2l1-24h-2c-0.2475 0.53625-0.495 1.0725-0.75 1.625-3.0212 5.7403-6.9691 10.552-11.25 15.375l-1-3c2.1534-3.2301 3.2706-4.7569 7-6 0.061875-0.70125 0.12375-1.4025 0.1875-2.125 1.126-3.9844 2.9514-5.8777 5.8125-8.875 3-1 3-1 4-1z" fill="#D38F97"/>
<path transform="translate(603,1154)" d="m0 0h3l1 4h-2c-1.2299 3.6897-0.98315 6.7729-0.83984 10.625-0.16016 2.375-0.16016 2.375-2.1602 5.375-0.41096 2.617-0.74232 5.1808-1 7.8125-0.49824 5.0054-1.2098 9.436-3 14.188-1.1564-3.4692-0.83473-5.9911-0.1875-9.5625 1.1121-6.5829 1.8175-13.163 2.4016-19.813 0.42731-4.4753 1.1551-8.3915 2.7859-12.625z" fill="#906C79"/>
<path transform="translate(703,1161)" d="m0 0c3.6734 0.94512 4.8181 1.7118 6.8789 4.9766 0.57804 1.2082 1.1386 2.425 1.6836 3.6484 0.59731 1.2775 1.195 2.5549 1.793 3.832 0.81404 1.7538 0.81404 1.7538 1.6445 3.543 0.78534 1.441 1.5756 2.8793 2.375 4.3125 2.9736 5.96 3.1071 12.265 1.625 18.688h-2c-0.059941-1.6706-0.059941-1.6706-0.12109-3.375-0.68421-11.427-3.5771-19.449-9.8198-29.002-1.4164-2.17-2.7385-4.3933-4.0591-6.6226z" fill="#8E6C77"/>
<path transform="translate(814,1087)" d="m0 0 2 1c-0.99 1.32-1.98 2.64-3 4h2c-1.1726 2.3452-2.2115 2.9418-4.375 4.375-2.3404 1.5934-3.5467 2.4991-5.0625 4.9375-1.5625 1.6875-1.5625 1.6875-3.5156 1.9336-2.0173 0.0035267-4.0339-0.1141-6.0469-0.24609l1-4c1.0519-0.18562 2.1038-0.37125 3.1875-0.5625 4.0974-1.1377 5.419-3.2649 7.6211-6.7461 1.6758-2.3791 3.5457-3.5473 6.1914-4.6914z" fill="#6C6370"/>
<path transform="translate(544,1052)" d="m0 0c2.3125 0.0625 2.3125 0.0625 5 1 1.5625 3.125 1.5625 3.125 2.25 5.0156 1.3942 3.6888 3.1429 8.1808 6.75 9.9844v4h2l1 5h2v3h2l2 5h2l1 6c-6.1642-5.9594-10.625-12.79-14.586-20.352-1.6368-3.0655-3.4473-5.9797-5.3359-8.8945-1.9049-3.0989-3.0781-5.0503-3.0781-8.7539-0.99-0.33-1.98-0.66-3-1z" fill="#D2929A"/>
<path transform="translate(854,996)" d="m0 0v2l2 1h-2l-1 2-2.0625 1.9375c-2.2798 1.9553-2.2798 1.9553-1.9375 5.0625l-5 2 0.8125 3.1875c0.1875 3.8125 0.1875 3.8125-2.25 6.75l-2.5625 2.0625c0.59351-7.9031 3.1251-26 14-26z" fill="#6E606C"/>
<path transform="translate(599,1127)" d="m0 0c-0.26696 3.9154-0.49494 5.5338-3.4375 8.25l-2.5625 1.75-2 2c-0.20086-3.716-0.15194-4.7721 2-8h-17c6.7253-4.4836 15.153-4.3005 23-4z" fill="#98707C"/>
<path transform="translate(867,975)" d="m0 0c2 3 2 3 1.5391 6.3555-0.30164 1.2646-0.60328 2.5291-0.91406 3.832-0.44473 1.9085-0.44473 1.9085-0.89844 3.8555-0.35965 1.4637-0.35965 1.4637-0.72656 2.957l-2-4-1 3c-2.9375 1.625-2.9375 1.625-6 3l-2 1c1.3556-4.3378 3.7267-7.3946 6.4688-10.93 2.1359-2.8878 3.8218-5.9144 5.5312-9.0703z" fill="#715F6F"/>
<path transform="translate(360,1045)" d="m0 0c4.878 4.878 4.878 4.878 5.3125 8.875-0.035858 5.6297-2.3939 10.909-4.3125 16.125h-1v-25z" fill="#CFC8D6"/>
<path transform="translate(566,1123)" d="m0 0h-3l-1 3c-5.7613 2.9804-11.543 4.5739-18 4v3c-3.2145 1.6073-6.4361 1.0575-10 1l3-2 2.0625-1.4375c3.3426-1.778 6.6042-2.7147 10.238-3.7305 3.6151-1.1143 7.0252-2.6105 10.473-4.1602 2.5174-0.75965 3.7817-0.54263 6.2266 0.32812z" fill="#D48E95"/>
<path transform="translate(624,1163)" d="m0 0c4.7224 3.4344 8.2401 7.5883 12 12 1.9022 2.147 3.8073 4.2913 5.7148 6.4336 1.2852 1.5664 1.2852 1.5664 1.2852 2.5664h-5c-1.0753-2.6523-2.0946-5.2837-3-8-0.99-0.33-1.98-0.66-3-1v-2h-3l1 2h-3c-0.5056-1.4355-1.0043-2.8735-1.5-4.3125-0.27844-0.80051-0.55688-1.601-0.84375-2.4258-0.65625-2.2617-0.65625-2.2617-0.65625-5.2617z" fill="#926A78"/>
<path transform="translate(705,1165)" d="m0 0c3.45 3.1149 5.5071 6.3462 7.6875 10.438 0.60199 1.1125 1.204 2.2249 1.8242 3.3711 2.3888 5.1224 2.6075 9.3865 2.5508 15.004-0.0090234 1.1614-0.018047 2.3229-0.027344 3.5195-0.011602 0.88043-0.023203 1.7609-0.035156 2.668h-2l-1-19h-2c-1.7266-2.4844-1.7266-2.4844-3.625-5.75-0.63164-1.0673-1.2633-2.1347-1.9141-3.2344-1.4609-3.0156-1.4609-3.0156-1.4609-7.0156z" fill="#D48F9A"/>
<path transform="translate(636,1157)" d="m0 0 2 1v2l1.75 0.6875c2.8191 1.6445 4.2625 3.748 6.25 6.3125l3 2v2c0.81211 0.33645 0.81211 0.33645 1.6406 0.67969 3.0947 1.7318 5.5386 4.0365 8.1094 6.4453 0.5066 0.46793 1.0132 0.93586 1.5352 1.418 1.242 1.1483 2.479 2.3021 3.7148 3.457l-2 1c-4.186-2.6284-7.6729-5.2815-11-9v-2l-1.5625-0.6875c-2.1395-1.152-4.1601-2.351-6.1875-3.6875-0.61359-0.39961-1.2272-0.79922-1.8594-1.2109-1.3906-1.4141-1.3906-1.4141-1.3906-5.4141l-4-1v-4z" fill="#D29098"/>
<path transform="translate(664,1119)" d="m0 0c3.6028 0.41571 5.6239 2.1907 8.2812 4.543 1.9093 1.6186 3.9197 3.0205 5.9688 4.457 3.2582 2.3943 4.4582 4.1246 5.75 8 1.3252 0.68268 2.6581 1.3507 4 2 0.75 2.125 0.75 2.125 1 4h2l1 4c-2.5928-2.5834-5.1716-5.176-7.7266-7.7969-5.8193-5.9461-11.733-11.419-18.289-16.559-0.65484-0.5427-1.3097-1.0854-1.9844-1.6445v-1z" fill="#916C77"/>
<path transform="translate(572,1119)" d="m0 0c-2.7572 2.7572-5.9756 3.3667-9.625 4.4375-4.4473 1.3338-8.8281 2.6648-13.125 4.4375-3.326 1.1513-4.0842 1.1298-7.25 0.125 9.8615-5.7754 18.364-9.3636 30-9z" fill="#8E6C78"/>
<path transform="translate(493,1161)" d="m0 0 2 1v2h-2c-0.80771 5.0482-1.1417 10.012-1.25 15.125-0.025781 1.1576-0.051562 2.3152-0.078125 3.5078 0.36357 3.7309 1.5957 6.0833 3.3281 9.3672l-1 2-2-1c-0.625-2.5625-0.625-2.5625-1-5h-2v-20l2-1c0.72694-1.9789 1.3982-3.9795 2-6z" fill="#9B707C"/>
<path transform="translate(623,1165)" d="m0 0c2 1 2 1 2.7812 2.7227 3.2196 10.481 4.3771 21.34 4.2188 32.277-2.1519-3.2279-2.2009-4.284-2-8h-2c-0.073477-1.4154-0.073477-1.4154-0.14844-2.8594-0.47562-8.1675-1.3076-16.091-2.8516-24.141z" fill="#D5909A"/>
<path transform="translate(648,1111)" d="m0 0c5.75 1.875 5.75 1.875 8 3v2l2.0625 0.75c6.0191 2.5613 10.169 4.8236 13.938 10.25-2.31-0.33-4.62-0.66-7-1l-1-5c-0.53625-0.0825-1.0725-0.165-1.625-0.25-2.375-0.75-2.375-0.75-5.3125-2.8125-3.1464-1.9906-4.4486-2.3627-8.0625-1.9375l-1-5z" fill="#DB9099"/>
<path transform="translate(584,1175)" d="m0 0c-0.14244 2.6669-0.28887 5.3335-0.4375 8-0.058975 1.1157-0.058975 1.1157-0.11914 2.2539-0.27998 4.9534-0.77847 9.8292-1.4434 14.746h-1l-1-16h-3c1.0057-3.017 3.0915-9 7-9z" fill="#8E6C79"/>
<path transform="translate(840,1008)" d="m0 0h1c0.31 5.8899 0.039498 9.8643-3 15-2.6875 0.9375-2.6875 0.9375-5 1l-1-6h2c0.26812-0.61875 0.53625-1.2375 0.8125-1.875 1.1875-2.125 1.1875-2.125 4.1875-4.125 0.72382-2.0593 0.72382-2.0593 1-4z" fill="#FAF5F9"/>
<path transform="translate(609,1162)" d="m0 0 2 1c0.63281 2.5039 0.63281 2.5039 1.125 5.5625 0.16758 1.0119 0.33516 2.0238 0.50781 3.0664 0.12117 0.78246 0.24234 1.5649 0.36719 2.3711h2c0.19336 1.1228 0.38672 2.2455 0.58594 3.4023 1.3142 7.5734 2.6453 15.114 4.4141 22.598h-2c-1.2847-5.0896-2.5664-10.18-3.8452-15.271-0.43568-1.7326-0.8722-3.4651-1.3096-5.1973-0.6277-2.4866-1.2524-4.9739-1.8765-7.4614-0.19686-0.77713-0.39373-1.5543-0.59656-2.3549-1.3722-5.4876-1.3722-5.4876-1.3722-7.7154z" fill="#D49099"/>
<path transform="translate(552,1051)" d="m0 0h14l1 4c1.4568 2.2188 2.934 4.362 4.5 6.5 4.9948 6.8196 4.9948 6.8196 5.5 10.5-2.5-1.75-2.5-1.75-5-4v-4l-1.875-0.6875c-2.747-1.6967-2.9914-3.365-4.125-6.3125-0.99-0.33-1.98-0.66-3-1v-3l-11-1v-1z" fill="#CD8D95"/>
<path transform="translate(582,1106)" d="m0 0c1.1055 0.93591 2.2094 1.8738 3.3125 2.8125 0.61488 0.52207 1.2298 1.0441 1.8633 1.582 3.3437 2.9428 3.3437 2.9428 4.8242 4.6055v2c-1.7281 0.33896-3.4575 0.67092-5.1875 1-1.4444 0.27844-1.4444 0.27844-2.918 0.5625-2.688 0.40628-5.1822 0.51684-7.8945 0.4375v-3c3.1964-1.0655 5.6575-1.0743 9-1l-0.9375-2.25c-0.87411-2.2624-1.5051-4.3997-2.0625-6.75z" fill="#876B77"/>
<path transform="translate(608,1160)" d="m0 0c2.3282 4.3657 3.4159 8.8517 4.625 13.625 0.22945 0.85207 0.45891 1.7041 0.69531 2.582 1.5322 6.0283 1.9641 11.584 1.6797 17.793-2.3976-2.3976-2.3428-3.3327-2.625-6.625-0.074766-0.81727-0.14953-1.6345-0.22656-2.4766-0.073477-0.93973-0.073477-0.93973-0.14844-1.8984h-1c-0.13277-0.91523-0.26555-1.8305-0.40234-2.7734-0.1766-1.1885-0.3532-2.377-0.53516-3.6016-0.17402-1.1834-0.34805-2.3667-0.52734-3.5859-0.36978-2.9461-0.36978-2.9461-1.5352-5.0391-0.13415-2.6724-0.043185-5.3225 0-8z" fill="#8F6B77"/>
<path transform="translate(367,196)" d="m0 0h1c-0.875 6.75-0.875 6.75-2 9-1.3333 0.33333-2.6667 0.66667-4 1l-1 2h-2c0.061875 0.76312 0.12375 1.5262 0.1875 2.3125-0.1875 2.6875-0.1875 2.6875-1.6875 4.5l-1.5 1.1875-2-1c-0.28875 0.63938-0.5775 1.2788-0.875 1.9375-1.125 2.0625-1.125 2.0625-3.125 3.0625 1.464-3.0688 3.1401-5.9043 5-8.75l1.5625-2.4219 1.4375-1.8281h2c0.22688-0.51562 0.45375-1.0312 0.6875-1.5625 1.8023-3.3472 3.9253-6.4764 6.3125-9.4375z" fill="#F0DFEB"/>
<path transform="translate(602,1152)" d="m0 0h5l1 5-2-1v-2c-0.99 0.33-1.98 0.66-3 1-0.1107 0.63092-0.2214 1.2618-0.33545 1.9119-0.50414 2.8436-1.0217 5.6845-1.5396 8.5256-0.17402 0.99322-0.34805 1.9864-0.52734 3.0098-0.17402 0.94424-0.34805 1.8885-0.52734 2.8613-0.1571 0.87455-0.31421 1.7491-0.47607 2.6501-0.1961 0.67362-0.3922 1.3472-0.59424 2.0413l-2 1c0.66257-7.7242 1.7646-15.348 3-23h2v-2z" fill="#DD929D"/>
<path transform="translate(661,1138)" d="m0 0c5.8914 1.9638 9.7514 7.9088 13.688 12.562 0.728 0.84595 0.728 0.84595 1.4707 1.709 2.3474 2.7683 4.435 5.3637 5.8418 8.7285-4.7037-1.4854-4.7037-1.4854-6.1875-4.0625-0.26812-0.63938-0.53625-1.2788-0.8125-1.9375l-2-1-0.875-1.875c-1.3198-2.493-2.8794-3.4782-5.125-5.125v-2h-2c-2.125-1.8125-2.125-1.8125-4-4v-3z" fill="#8F6B79"/>
<path transform="translate(528,1154)" d="m0 0c0.99 0.33 1.98 0.66 3 1-0.47051 0.4125-0.94102 0.825-1.4258 1.25-6.5977 6.1196-8.6571 11.945-9.5742 20.75h-2c0.58246-6.7596 1.1495-13.224 5-19h2v-2l3-2z" fill="#D28F98"/>
<path transform="translate(599,1127)" d="m0 0c1.1875 1.6875 1.1875 1.6875 2 4-1.2398 2.8928-2.0559 4.5959-5.0078 5.8594-2.6653 1.526-2.9121 2.8605-3.7422 5.7656-0.24234 0.81727-0.48469 1.6345-0.73438 2.4766-0.17016 0.62648-0.34031 1.253-0.51562 1.8984l-5 1c1.3271-3.737 2.9657-6.5312 5.4375-9.625 0.59684-0.75539 1.1937-1.5108 1.8086-2.2891 1.7539-2.0859 1.7539-2.0859 3.4336-3.7227 1.6346-1.6878 1.9266-3.0798 2.3203-5.3633z" fill="#D68F93"/>
<path transform="translate(576,1130)" d="m0 0c-3.0044 2.0029-4.7099 2.4927-8.1875 3.125-1.3516 0.25137-1.3516 0.25137-2.7305 0.50781-0.68707 0.12117-1.3741 0.24234-2.082 0.36719v2l-3.6875 1.375c-3.1206 1.1695-6.2248 2.3706-9.3125 3.625l-2-2c3.2279-2.1519 4.284-2.2009 8-2v-2h5l1-3c4.3809-1.6926 9.3262-2.3015 14-2z" fill="#D69098"/>
<path transform="translate(748,1080)" d="m0 0c0.62648 0.072188 1.253 0.14438 1.8984 0.21875 1.2259 0.13922 1.2259 0.13922 2.4766 0.28125 1.2182 0.13922 1.2182 0.13922 2.4609 0.28125 2.1332 0.25227 2.1332 0.25227 4.1641 0.21875 1.125 3.75 1.125 3.75 0 6-4.9731-0.49731-8.638-1.553-13-4l2-1v-2zm1 1 1 2z" fill="#F5F1F4"/>
<path transform="translate(565,1052)" d="m0 0c3.3437 0.55729 6.0331 1.3517 9 3-0.2475 0.70125-0.495 1.4025-0.75 2.125-0.34795 4.0014 1.5127 5.6588 3.75 8.875l-1 3c-1.6505-2.2676-3.2955-4.5388-4.9375-6.8125-0.46857-0.6426-0.93715-1.2852-1.4199-1.9473-0.67192-0.93296-0.67192-0.93296-1.3574-1.8848-0.41371-0.57081-0.82742-1.1416-1.2537-1.7297-1.0315-1.6257-1.0315-1.6257-2.0315-4.6257z" fill="#816F78"/>
<path transform="translate(901,862)" d="m0 0c0.080864 2.938 0.14043 5.8739 0.1875 8.8125 0.025137 0.83338 0.050273 1.6668 0.076172 2.5254 0.009668 0.80244 0.019336 1.6049 0.029297 2.4316 0.01571 0.73839 0.031421 1.4768 0.047607 2.2375-0.34058 1.9929-0.34058 1.9929-3.3406 4.9929v-20c2-1 2-1 3-1z" fill="#FBF7FB"/>
<path transform="translate(627,1087)" d="m0 0 1 2-2.6875 2.0625c-2.5621 2.058-3.9357 3.9427-5.5 6.8125-1.1797 1.8086-1.1797 1.8086-2.8125 3.125-3.7963 0.3065-7.2844-0.22565-11-1v-1h10c2-3.7643 2-3.7643 3-7 2.6614-2.3812 4.5968-3.8656 8-5z" fill="#986F7B"/>
<path transform="translate(586,1083)" d="m0 0c4.0281 2.9092 6.3158 5.8517 9 10 1.943 2.3844 3.9584 4.6998 6 7-2.8069-1.3034-4.6281-2.5256-7.0625-4.5625-2.7396-2.5729-2.7396-2.5729-5.9375-3.4375v-4h-2v-5z" fill="#D48F95"/>
<path transform="translate(872,885)" d="m0 0c2.1306 3.1958 2.4048 4.6966 2.75 8.4375 0.097969 0.94746 0.19594 1.8949 0.29688 2.8711-0.049377 2.8351-0.57858 4.3026-2.0469 6.6914-3.6324-10.941-3.6324-10.941-3-16l2-2z" fill="#705E6C"/>
<path transform="translate(385,178)" d="m0 0 2 4-9 5v3l-1 2c-2.0625 0.625-2.0625 0.625-4 1 0-4.1874 2.2202-6.1308 5-9 2.2756-2.0735 4.6111-4.0586 7-6z" fill="#F4E3EA"/>
<path transform="translate(688,1143)" d="m0 0c3.9764 2.8718 6.5153 5.7668 9 10v2c0.61359 0.24492 1.2272 0.48984 1.8594 0.74219 2.567 1.5083 3.1792 2.7004 4.3906 5.3828 0.33516 0.72445 0.67031 1.4489 1.0156 2.1953 0.24234 0.5543 0.48469 1.1086 0.73438 1.6797-2 0-2 0-3.5625-1.3125-1.4375-1.6875-1.4375-1.6875-2.4375-4.6875l-1.3125-1.3125c-1.6875-1.6875-1.6875-1.6875-3.625-4.625-1.9134-3.0673-1.9134-3.0673-4.3125-5.25-1.75-1.8125-1.75-1.8125-1.75-4.8125z" fill="#D08E97"/>
<path transform="translate(578.81 319.69)" d="m0 0c0.88365 0.022559 1.7673 0.045117 2.6777 0.068359 2.1707 0.058666 4.3404 0.14834 6.5098 0.24414v1h-18v2h2l-1 4c-1.8125 0.6875-1.8125 0.6875-4 1-1.75-1.4375-1.75-1.4375-3-3 4.3319-5.6952 7.9275-5.6462 14.812-5.3125z" fill="#EED9E2"/>
<path transform="translate(359,1040)" d="m0 0h6c0.14438 0.78375 0.28875 1.5675 0.4375 2.375 0.44049 2.5892 0.44049 2.5892 1.5625 4.625l-1 3c-3.2137-1.1082-3.9914-1.9853-5.75-5-1.25-3-1.25-3-1.25-5z" fill="#696070"/>
<path transform="translate(358,1040)" d="m0 0c2 2 2 2 2.2271 4.2466-0.010474 0.91121-0.020947 1.8224-0.031738 2.7612-0.0064453 0.98613-0.012891 1.9723-0.019531 2.9883-0.016758 1.0325-0.033516 2.0651-0.050781 3.1289-0.0090234 1.0403-0.018047 2.0805-0.027344 3.1523-0.023619 2.5744-0.056555 5.1484-0.097656 7.7227h-1v-16l-5 1v-2h2v-6l2-1z" fill="#F1EBF3"/>
<path transform="translate(643,1184)" d="m0 0c3.8413 1.5091 5.488 3.8029 8 7 1.2684 0.99 1.2684 0.99 2.5625 2 2.5744 2.1123 3.894 4.0756 5.4375 7-3 0-3 0-4.6133-1.5742-0.56074-0.69738-1.1215-1.3948-1.6992-2.1133-2.2255-2.6801-4.3678-4.9951-7.125-7.125l-2.5625-2.1875v-3z" fill="#986F7A"/>
<path transform="translate(747,332)" d="m0 0 4 2-1 2-1-1c-0.026997 2.2708-0.046395 4.5416-0.0625 6.8125-0.017402 1.8969-0.017402 1.8969-0.035156 3.832-0.063935 3.3515-0.063935 3.3515 1.0977 6.3555-0.45548 2.7381-1.2531 5.3201-2 8h-1v-28z" fill="#F2D6DB"/>
<path transform="translate(629,1168)" d="m0 0c3.3373 1.1726 5.7744 2.1887 8 5v2h2c5.5405 4.8649 5.5405 4.8649 6 9-3.7813-1.5332-5.8944-3.8322-8.5625-6.875-0.76441-0.86367-1.5288-1.7273-2.3164-2.6172-1.7929-2.1198-3.4879-4.2641-5.1211-6.5078z" fill="#D48F9A"/>
<path transform="translate(504,114)" d="m0 0v4c-3 2-3 2-5.6992 1.7578-0.98613-0.20883-1.9723-0.41766-2.9883-0.63281-0.99387-0.20367-1.9877-0.40734-3.0117-0.61719-1.1389-0.25137-1.1389-0.25137-2.3008-0.50781 2.1446-2.1446 3.0174-2.4456 5.875-3.125 0.67805-0.16758 1.3561-0.33516 2.0547-0.50781 2.0703-0.36719 2.0703-0.36719 6.0703-0.36719z" fill="#F4E3ED"/>
<path transform="translate(545,1141)" d="m0 0h5l-2 1v2l-2.625 1.25c-3.3332 1.7283-6.2913 3.6208-9.375 5.75l-1-3c2.2394-3.3591 3.2684-3.8168 7-5h3v-2z" fill="#D48F94"/>
<path transform="translate(672,1127)" d="m0 0c4.2676 2.286 7.4766 5.2358 10.812 8.6875 0.50209 0.51111 1.0042 1.0222 1.5215 1.5488 1.2267 1.25 2.447 2.5062 3.666 3.7637-0.99 0.33-1.98 0.66-3 1-1.3756-1.2897-2.7077-2.6269-4-4v-2l-1.6875-0.6875c-2.9741-1.688-5.0326-3.7793-7.3125-6.3125v-2z" fill="#D58F97"/>
<path transform="translate(622,1056)" d="m0 0 2 1c0.40729 2.3216 0.74439 4.6569 1 7-2.31 0.33-4.62 0.66-7 1-0.99-1.32-1.98-2.64-3-4 0.59812-0.0825 1.1962-0.165 1.8125-0.25 2.7841-0.95456 3.6206-2.3213 5.1875-4.75z" fill="#F4EDF2"/>
<path transform="translate(596,1125)" d="m0 0 2 2c-7.26 0.99-14.52 1.98-22 3v-2c13.022-3.6461 13.022-3.6461 20-3z" fill="#D6929A"/>
<path transform="translate(866,883)" d="m0 0h2l-1 9h-4l-1 12h-1c-0.52196-8.0904 1.4071-13.814 5-21z" fill="#EDCAD2"/>
<path transform="translate(897,848)" d="m0 0 4 1c1.4769 7.2615 1.4769 7.2615-0.9375 11l-2.0625 2c-0.95261-4.7631-1.0833-9.1667-1-14z" fill="#F7F0F3"/>
<path transform="translate(500,345)" d="m0 0c2 3 2 3 3 6l-5 2-1 7h-1c-0.027121-1.4374-0.046451-2.8749-0.0625-4.3125-0.011602-0.80051-0.023203-1.601-0.035156-2.4258 0.097656-2.2617 0.097656-2.2617 1.0977-5.2617h-2l1-2c2.0625-0.625 2.0625-0.625 4-1z" fill="#F7E1E7"/>
<path transform="translate(565,273)" d="m0 0 1.875 0.5625c2.1666 0.67436 2.1666 0.67436 4.125-0.5625l1 2 2-2 1 3c-1.9375 3.1875-1.9375 3.1875-4 6-0.61875-0.78375-1.2375-1.5675-1.875-2.375-2.0236-2.5934-2.0236-2.5934-4.125-4.625v-2z" fill="#F6E0EB"/>
<path transform="translate(522.85 1135.9)" d="m0 0c2.0508 0.032552 4.1016 0.065104 6.1523 0.097656-2.929 2.3336-5.8857 4.0496-9.25 5.6875-1.338 0.65549-1.338 0.65549-2.7031 1.3242-1.0132 0.4892-1.0132 0.4892-2.0469 0.98828v-4c2.4375-1.6875 2.4375-1.6875 5-3 1-1 1-1 2.8477-1.0977z" fill="#8A6E80"/>
<path transform="translate(590,1117)" d="m0 0c-0.63938 0.10312-1.2788 0.20625-1.9375 0.3125l-2.0625 0.6875-1 3c-0.75926-0.023203-1.5185-0.046406-2.3008-0.070312-1.4908-0.02707-1.4908-0.02707-3.0117-0.054688-0.98613-0.023203-1.9723-0.046406-2.9883-0.070312-2.9233-0.011514-2.9233-0.011514-5.6992 2.1953-2.6875-0.375-2.6875-0.375-5-1 3.6044-2.1094 7.3856-2.8487 11.438-3.625 0.65549-0.13406 1.311-0.26812 1.9863-0.40625 3.5739-0.7026 6.9344-1.1231 10.576-0.96875z" fill="#C88B93"/>
<path transform="translate(655,1054)" d="m0 0c0 2 0 2-2.375 4.5l-2.625 2.5-2 2v-5h-5c3.4585-3.4585 7.219-4 12-4z" fill="#837987"/>
<path transform="translate(545,340)" d="m0 0 1 2c-3.0863 3.2627-5.9348 6.0224-10 8l-2-1v-2c1.784-1.2801 3.6285-2.4766 5.5-3.625 1.5314-0.94746 1.5314-0.94746 3.0938-1.9141 0.79406-0.48211 1.5881-0.96422 2.4062-1.4609z" fill="#F5E0EA"/>
<path transform="translate(578,1101)" d="m0 0h2v2c1.98 0.66 3.96 1.32 6 2v2h2c2.0417 2.9055 3 4.4014 3 8-4.8418-3.9107-9.2465-8.0091-13-13v-1z" fill="#D7929A"/>
<path transform="translate(875,936)" d="m0 0h1c0.22134 2.1237 0.4267 4.249 0.625 6.375 0.11602 1.1834 0.23203 2.3667 0.35156 3.5859 0.0077344 1.0029 0.015469 2.0058 0.023438 3.0391l-2 2c-0.46006 2.2025-0.46006 2.2025-0.625 4.625-0.074766 0.81727-0.14953 1.6345-0.22656 2.4766-0.048984 0.62648-0.097969 1.253-0.14844 1.8984h-2c0.70436-8.0446 1.8147-16.014 3-24z" fill="#937C8A"/>
<path transform="translate(520,1178)" d="m0 0 12 15-2 1c-1.7075-1.2806-3.3737-2.6177-5-4v-2h-2v-4h-2l-1-6z" fill="#D18F97"/>
<path transform="translate(416,651)" d="m0 0c3.3659 2.7248 4.4423 6.0686 6 10-0.99 0.33-1.98 0.66-3 1l-2 2c-1.1023-4.4091-1.0765-8.4838-1-13z" fill="#EACAD1"/>
<path transform="translate(633,1073)" d="m0 0h2v2c1.98-0.33 3.96-0.66 6-1-0.93274 1.1289-1.8714 2.253-2.8125 3.375-0.52207 0.62648-1.0441 1.253-1.582 1.8984-1.6055 1.7266-1.6055 1.7266-4.6055 3.7266l1-10z" fill="#866F7E"/>
<path transform="translate(628,1178)" d="m0 0h1v6h2v16h-1c-1.4263-7.4114-2.3007-14.449-2-22z" fill="#99717E"/>
<path transform="translate(621,1142)" d="m0 0c3.3661 1.122 4.1948 2.0927 6.4375 4.75 0.60844 0.71672 1.2169 1.4334 1.8438 2.1719 1.9339 2.3383 3.8506 4.6869 5.7188 7.0781-1.9375-0.375-1.9375-0.375-4-1l-1-2c-0.99-0.33-1.98-0.66-3-1v-3h-2l-0.8125-2.4375c-0.39188-0.84562-0.78375-1.6912-1.1875-2.5625-0.99-0.33-1.98-0.66-3-1l1-1z" fill="#D49299"/>
<path transform="translate(699,803)" d="m0 0c0.99 0.33 1.98 0.66 3 1l-2 15-2-1c0.12568-1.0306 0.12568-1.0306 0.25391-2.082 0.10184-0.90105 0.20367-1.8021 0.30859-2.7305 0.10441-0.89332 0.20883-1.7866 0.31641-2.707 0.27768-2.6142 0.27768-2.6142-0.87891-5.4805l1-2z" fill="#E8CFDA"/>
<path transform="translate(297,672)" d="m0 0c3 3 3 3 3.0625 5.5625l-0.0625 2.4375-1.8125 0.4375c-1.749 0.44974-3.4743 0.99142-5.1875 1.5625 1.1094-3.4867 2.2634-6.7748 4-10z" fill="#F1E1EA"/>
<path transform="translate(489,1173)" d="m0 0h1l0.078125 2.125c0.39985 6.6884 1.73 11.023 4.9219 16.875l-1 2-2-1c-0.625-2.5625-0.625-2.5625-1-5h-2v-15z" fill="#8F6A77"/>
<path transform="translate(558,1075)" d="m0 0c2.774 1.387 3.4297 3.3426 5 6 1.3104 1.6848 2.6382 3.3565 4 5l-1 2-1.875-1.0625-2.125-0.9375-2 1c0.22688-0.7425 0.45375-1.485 0.6875-2.25 0.61924-2.7928 0.61924-2.7928-1.125-4.875l-1.5625-1.875v-3z" fill="#8E6E7A"/>
<path transform="translate(818,1064)" d="m0 0h4c-0.875 6.75-0.875 6.75-2 9h-3c-0.074278-3.3425-0.06547-5.8036 1-9z" fill="#F6F3F6"/>
<path transform="translate(987,791)" d="m0 0c1.1094 1.7383 1.1094 1.7383 2 4-0.60938 2.1055-0.60938 2.1055-1.75 4.1875-0.36609 0.6948-0.73219 1.3896-1.1094 2.1055-1.1406 1.707-1.1406 1.707-3.1406 2.707 0.59453-9.5945 0.59453-9.5945 4-13z" fill="#F8E1EE"/>
<path transform="translate(576,1184)" d="m0 0 1 2c-1.4717 3.7358-1.4717 3.7358-4 5l-0.875 2.5c-1.125 2.5-1.125 2.5-3.25 3.3125l-1.875 0.1875c1.5201-5.4049 5.2739-8.9849 9-13z" fill="#8D6C76"/>
<path transform="translate(293,720)" d="m0 0 4 1-2 4h-2c-0.28875 0.63938-0.5775 1.2788-0.875 1.9375-1.125 2.0625-1.125 2.0625-3.125 3.0625v-5h2v-2h2v-3z" fill="#F5E5EF"/>
<path transform="translate(680,1062)" d="m0 0h5l-2.1875 1.6875c-2.8718 2.2664-2.8718 2.2664-5.375 5-2.3158 2.197-3.339 2.9682-6.4375 3.3125 1.2806-1.7075 2.6177-3.3737 4-5h2v-2h2l1-3z" fill="#8C6C75"/>
<path transform="translate(653,1053)" d="m0 0h6l-4 7h-4l2-4h2v-2l-2-1z" fill="#8D747F"/>
<path transform="translate(334,242)" d="m0 0c1.0672 4.0021 1.2076 6.9746 0 11-2.0625 1.3125-2.0625 1.3125-4 2l-1-2c0.74219-1.8398 0.74219-1.8398 1.875-3.9375 1.2744-2.3838 2.2646-4.4813 3.125-7.0625z" fill="#EFDEE9"/>
<path transform="translate(716,1185)" d="m0 0c2 1 2 1 3.1875 3 1.1271 4.1615 0.49121 7.7901-0.1875 12h-2l-1-15z" fill="#976F7C"/>
<path transform="translate(656,1133)" d="m0 0h3v2h5v2h2v5l-2-1v-2l-1.75-0.875c-2.0833-1.0417-4.1667-2.0833-6.25-3.125v-2z" fill="#D48F94"/>
<path transform="translate(582,1106)" d="m0 0c1.1055 0.93591 2.2094 1.8738 3.3125 2.8125 0.61488 0.52207 1.2298 1.0441 1.8633 1.582 3.3437 2.9428 3.3437 2.9428 4.8242 4.6055v2h-5l1-4h-3c-2.3572-2.5318-3-3.4719-3-7z" fill="#986E76"/>
<path transform="translate(822,1071)" d="m0 0 2 1-1 7c-0.99-0.33-1.98-0.66-3-1-0.99 0.33-1.98 0.66-3 1 1.625-5.75 1.625-5.75 5-8z" fill="#675D6D"/>
<path transform="translate(493,1063)" d="m0 0c-3.8252 2.3907-7.5967 2.5597-12 3l2 4h-3l-2-5c1.5612-0.33952 3.124-0.67133 4.6875-1 0.87012-0.18562 1.7402-0.37125 2.6367-0.5625 2.6129-0.42722 5.0339-0.51366 7.6758-0.4375z" fill="#6B616D"/>
<path transform="translate(243,959)" d="m0 0h1v6h2c-0.57345 2.8672-0.86145 3.8615-3 6l-2-1c0.14043-1.6463 0.28749-3.292 0.4375-4.9375 0.081211-0.91652 0.16242-1.833 0.24609-2.7773 0.31641-2.2852 0.31641-2.2852 1.3164-3.2852z" fill="#F8F2FA"/>
<path transform="translate(693,1147)" d="m0 0h3l0.6875 2.1875c1.1998 3.0164 1.1998 3.0164 4 5.375l2.3125 2.4375c-0.1875 2.3125-0.1875 2.3125-1 4l-1.3125-2.3125c-1.4496-2.3086-2.7487-3.8295-4.6875-5.6875-3-3.6667-3-3.6667-3-6z" fill="#8F6B75"/>
<path transform="translate(635,1105)" d="m0 0 13 4c-4 2-4 2-5.9375 1.8125-2.5778-1.0155-4.7868-2.2322-7.0625-3.8125v-2z" fill="#D88F97"/>
<path transform="translate(837,1031)" d="m0 0h2l-1 6 2 1c-0.99 0.33-1.98 0.66-3 1-1.2088 2.0002-1.2088 2.0002-2 4h-1l1-9h2v-3z" fill="#6C6471"/>
<path transform="translate(357,1027)" d="m0 0h2c1.2857 8.4286 1.2857 8.4286 0 13-2.5938-3.8907-2.6319-6.3617-3-11l1-2z" fill="#807781"/>
<path transform="translate(869,885)" d="m0 0h1l1 11h-4c-0.25-7.625-0.25-7.625 2-11z" fill="#DDBBC8"/>
<path transform="translate(308,300)" d="m0 0 2 1c-0.49231 6.5231-0.49231 6.5231-3.0625 8.9375l-1.9375 1.0625c0.46801-4.0561 0.87953-7.4659 3-11z" fill="#F3E2EE"/>
<path transform="translate(652,1171)" d="m0 0h2v2h2c2.3487 1.9729 3.001 3.0031 4 6 0.99-0.33 1.98-0.66 3-1l1 2-2 2c-1.6726-1.4516-3.3379-2.9114-5-4.375-1.3922-1.2182-1.3922-1.2182-2.8125-2.4609-0.72188-0.71414-1.4438-1.4283-2.1875-2.1641v-2z" fill="#916C78"/>
<path transform="translate(889,1066)" d="m0 0 1 2c0.99-0.33 1.98-0.66 3-1l0.4375 2.25c0.46437 2.2703 0.98114 4.5076 1.5625 6.75h-3c-2.6025-3.3736-3.3627-5.7691-3-10z" fill="#CDC2D3"/>
<path transform="translate(300,800)" d="m0 0c1.125 1.75 1.125 1.75 2 4-0.875 2.25-0.875 2.25-2 4h-2c-1.3731 1.2923-2.7103 2.6244-4 4 1.3186-4.6151 3.2136-8.099 6-12z" fill="#F0DFEA"/>
<path transform="translate(593,1128)" d="m0 0h4c-0.37329 5.3505-1.9958 7.5091-6 11-0.1875-2.375-0.1875-2.375 0-5l3-2 1-3-2-1z" fill="#896A77"/>
<path transform="translate(449,1074)" d="m0 0-1 4h-2v-3c-0.64969 0.99-0.64969 0.99-1.3125 2-0.55688 0.66-1.1138 1.32-1.6875 2h-3v-2h2v-3c3.1335-1.0445 3.9897-0.93424 7 0z" fill="#675C6B"/>
<path transform="translate(325,260)" d="m0 0 2 3c-1.0284 4.0108-2.9599 6.2639-6 9 0-3.2366 0.65508-4.7875 2-7.6875 0.37125-0.80824 0.7425-1.6165 1.125-2.4492 0.28875-0.61488 0.5775-1.2298 0.875-1.8633z" fill="#F0DFE9"/>
<path transform="translate(501,1152)" d="m0 0 4 1-4 2v2c-1.9593 1.7144-3.9588 3.3841-6 5l1-6h4l1-4z" fill="#946D78"/>
<path transform="translate(602,1152)" d="m0 0h5l1 5-2-1v-2c-0.99 0.33-1.98 0.66-3 1l-1 5c-2-3-2-3-2-6h2v-2z" fill="#D18C95"/>
<path transform="translate(523,1139)" d="m0 0c0.99 0.33 1.98 0.66 3 1-1.2589 2.5179-2.3906 2.9271-4.875 4.1875-0.69867 0.3648-1.3973 0.72961-2.1172 1.1055-2.0078 0.70703-2.0078 0.70703-5.0078-0.29297 1.4286-1.0333 2.8682-2.0513 4.3125-3.0625 0.80051-0.56848 1.601-1.137 2.4258-1.7227 0.74637-0.4009 1.4927-0.8018 2.2617-1.2148z" fill="#D29096"/>
<path transform="translate(361,1070)" d="m0 0 6 3c-1.8678 2.8018-3.3027 4.1119-6 6v-9z" fill="#675F6C"/>
<path transform="translate(504,1060)" d="m0 0h8v2c-3 2-3 2-5.6875 1.625l-2.3125-0.625v-3z" fill="#6C6470"/>
<path transform="translate(379,1053)" d="m0 0 2 1v7h-3l-2-7c0.99-0.33 1.98-0.66 3-1z" fill="#6C636E"/>
<path transform="translate(972,919)" d="m0 0c2.2963 3.4445 2.5402 5.9381 3 10l-3 2c-0.19574-1.4364-0.38128-2.8742-0.5625-4.3125-0.10441-0.80051-0.20883-1.601-0.31641-2.4258-0.12109-2.2617-0.12109-2.2617 0.87891-5.2617z" fill="#F8F1F9"/>
<path transform="translate(253,748)" d="m0 0 2 4c-0.99 0.33-1.98 0.66-3 1l-1 6h-3c1.4495-3.791 3.1517-7.3875 5-11z" fill="#F3E2EE"/>
<path transform="translate(892,975)" d="m0 0 2 1v5h-2l-2 4h-1c-0.1875-2.875-0.1875-2.875 0-6l3-2v-2z" fill="#F9F5F9"/>
<path transform="translate(800,970)" d="m0 0 1 3c-1.9154 3.8308-3.7003 7.1953-7 10l-2-1c1.7558-3.0936 3.5002-5.5002 6-8 1.1757-2.0999 1.1757-2.0999 2-4z" fill="#E5C9CF"/>
<path transform="translate(357,932)" d="m0 0h3l-1 11c-1.9694-2.9541-2.569-4.5521-3-8l1-3z" fill="#776474"/>
<path transform="translate(342,230)" d="m0 0h1c0.20086 3.716 0.15194 4.7721-2 8h-2v2h-2c1.1498-3.8917 2.2922-6.939 5-10z" fill="#F0DFEB"/>
<path transform="translate(649,1064)" d="m0 0 1 2h-2c-0.2475 0.5775-0.495 1.155-0.75 1.75-1.4168 2.5503-3.1263 4.2679-5.25 6.25 0-4.0535 1.5816-5.8215 4-9 0.99-0.33 1.98-0.66 3-1z" fill="#926F79"/>
<path transform="translate(636,1056)" d="m0 0c0.99 0.33 1.98 0.66 3 1l-1 3-10 2v-2l2.875-0.875c3.1771-0.89325 3.1771-0.89325 5.125-3.125z" fill="#F9F5F7"/>
<path transform="translate(284,832)" d="m0 0c0.94314 3.4161 1.0807 6.4513 1 10h-2v9h-1c-0.22262-6.7282 0.049785-12.54 2-19z" fill="#E8D9E7"/>
<path transform="translate(982,805)" d="m0 0h2c-0.27489 4.0317-0.53492 5.5689-3.5625 8.375l-2.4375 1.625-2-1c1.2806-1.7075 2.6177-3.3737 4-5h2v-4z" fill="#CAB5C8"/>
<path transform="translate(289,730)" d="m0 0c1 3 1 3-0.4375 6.1875l-1.5625 2.8125h-4c1.5271-3.436 3.5993-6.1191 6-9z" fill="#CBBDCC"/>
<path transform="translate(419,704)" d="m0 0h1l1 20c-0.99 0.33-1.98 0.66-3 1l1-21z" fill="#F3D2D8"/>
<path transform="translate(600,317)" d="m0 0c1.925 1.8219 3.3754 3.8924 5 6l-2 2c-0.5775-0.825-1.155-1.65-1.75-2.5l-2.25-2.5h-4v-2c2-1 2-1 5-1z" fill="#F3DEEA"/>
<path transform="translate(542,1130)" d="m0 0c-4.625 3-4.625 3-8 3v2l-4-2v-1c1.4334-0.53191 2.872-1.0502 4.3125-1.5625 1.2008-0.43506 1.2008-0.43506 2.4258-0.87891 2.2617-0.55859 2.2617-0.55859 5.2617 0.44141z" fill="#906D79"/>
<path transform="translate(797,1099)" d="m0 0c3.3746 0.54724 5.0824 1.0549 8 3-3.1964 1.0655-5.6575 1.0743-9 1l1-4z" fill="#665C6B"/>
<path transform="translate(805,1089)" d="m0 0 1 2c-0.63029 1.6808-1.2979 3.348-2 5v2h-3l-1-5 5-4z" fill="#FAF6FA"/>
<path transform="translate(429,1025)" d="m0 0c6.6462 1.4769 6.6462 1.4769 8.4375 4.125 0.27844 0.92812 0.27844 0.92812 0.5625 1.875-6.6462-1.4769-6.6462-1.4769-8.4375-4.125-0.18562-0.61875-0.37125-1.2375-0.5625-1.875z" fill="#DFC7CF"/>
<path transform="translate(858,905)" d="m0 0h3c0.081596 4.1614-0.017515 7.9472-1 12h-1c-0.98249-4.0528-1.0816-7.8386-1-12z" fill="#FADEE3"/>
<path transform="translate(403,889)" d="m0 0c-2.3976 2.3976-3.3327 2.3428-6.625 2.625-0.81727 0.074766-1.6345 0.14953-2.4766 0.22656-0.62648 0.048984-1.253 0.097969-1.8984 0.14844v-2c7.625-2.125 7.625-2.125 11-1z" fill="#EBCBD0"/>
<path transform="translate(669,332)" d="m0 0h1v9h-2l-1 2c-1.1495-3.5529-1.0869-4.7998 0.4375-8.3125l1.5625-2.6875z" fill="#F3DEE8"/>
<path transform="translate(409,158)" d="m0 0v3c-0.99 0.33-1.98 0.66-3 1-1.2088 2.0002-1.2088 2.0002-2 4h-4c2.8528-2.932 5.6508-5.6432 9-8z" fill="#F3E3ED"/>
<path transform="translate(640,1160)" d="m0 0h5c2.125 4.625 2.125 4.625 1 8-1.98-2.64-3.96-5.28-6-8z" fill="#926D77"/>
<path transform="translate(638,1122)" d="m0 0 8 2v3h-4v-2l-4-1v-2z" fill="#D7909A"/>
<path transform="translate(439,1075)" d="m0 0-1 4h-5l-1-3c2.4628-1.2314 4.2795-1.0716 7-1z" fill="#6A5F6C"/>
<path transform="translate(475,867)" d="m0 0h1c1.1023 4.4091 1.0765 8.4838 1 13-1.5625-1.4375-1.5625-1.4375-3-4 0.031537-3.0538 0.46733-5.9965 1-9z" fill="#EFC8D0"/>
<path transform="translate(704,730)" d="m0 0h3v5l-2 1v-2c-0.99 0.33-1.98 0.66-3 1l-2-2 4-1v-2z" fill="#DFBEC1"/>
<path transform="translate(1021,1138)" d="m0 0c2.1519 3.2279 2.2009 4.284 2 8l-1-2c-2.0167-1.1335-2.0167-1.1335-4-2v-3c0.99-0.33 1.98-0.66 3-1z" fill="#F7F1F9"/>
<path transform="translate(570,1091)" d="m0 0 4 1 1 5h2l1 4-2-1v-2h-2l-1-4h-2l-1-3z" fill="#D08D98"/>
<path transform="translate(195,1086)" d="m0 0h2l1 8h-2l-2-2c0.375-3.125 0.375-3.125 1-6z" fill="#F9F3FB"/>
<path transform="translate(410,1072)" d="m0 0h4v2c0.99-0.33 1.98-0.66 3-1l1 2c-0.9375 2.125-0.9375 2.125-2 4v-2h-2c-1.3823-1.6263-2.7194-3.2925-4-5z" fill="#F9F6F8"/>
<path transform="translate(449,1066)" d="m0 0 5 1-1 4-5-1 1-4z" fill="#FAF6F9"/>
<path transform="translate(566,1049)" d="m0 0c2.97 0.495 2.97 0.495 6 1v2l2 1c-1.6875 0.6875-1.6875 0.6875-4 1-2.75-1.4375-2.75-1.4375-5-3l1-2z" fill="#F3EDF2"/>
<path transform="translate(262,891)" d="m0 0c1.238 3.5764 0.74926 6.3369 0 10-0.99 0.33-1.98 0.66-3 1 0.55106-3.9493 1.3894-7.3492 3-11z" fill="#F5EFF9"/>
<path transform="translate(762,804)" d="m0 0h1v5l4-1v3c-4.75-0.75-4.75-0.75-7-3l2-4z" fill="#E2C5CC"/>
<path transform="translate(997,751)" d="m0 0h2c0.25 2.8125 0.25 2.8125 0 6-2 1.875-2 1.875-4 3-0.6875-1.6875-0.6875-1.6875-1-4 1.3125-2.75 1.3125-2.75 3-5z" fill="#F4E4ED"/>
<path transform="translate(965,718)" d="m0 0 3 2c0.3125 3 0.3125 3 0 6l-2 2-1-10z" fill="#DFBFD0"/>
<path transform="translate(945,632)" d="m0 0c2.5259 2.3629 3.8882 3.6646 5 7l-2 1-1-2-2 1c-0.93424-3.0103-1.0445-3.8665 0-7z" fill="#EFE1EC"/>
<path transform="translate(892,611)" d="m0 0h1c1.1023 4.4091 1.0765 8.4838 1 13-2.5408-4.7429-3.325-7.6999-2-13z" fill="#EEDEEA"/>
<path transform="translate(564,327)" d="m0 0-2 5h-2l-1 3-2-4c4.75-4 4.75-4 7-4z" fill="#F3DEE6"/>
<path transform="translate(485,120)" d="m0 0c-0.8125 1.9375-0.8125 1.9375-2 4-0.99 0.33-1.98 0.66-3 1l-3-3c2.906-1.2566 4.796-2 8-2z" fill="#F3E3EF"/>
<path transform="translate(645,1184)" d="m0 0c2.97 0.495 2.97 0.495 6 1l1 5c-1.8125-0.1875-1.8125-0.1875-4-1-1.75-2.5625-1.75-2.5625-3-5z" fill="#DD939A"/>
<path transform="translate(579,1152)" d="m0 0c0.99 0.33 1.98 0.66 3 1-2.97 3.96-2.97 3.96-6 8l-1-4h2l2-5z" fill="#8B6B76"/>
<path transform="translate(636,1103)" d="m0 0 1 2h7l2 4-10-3v-3z" fill="#9F707E"/>
<path transform="translate(806,1089)" d="m0 0h3c-1.1858 3.375-2.2757 5.6472-5 8l-1-2c0.93447-2.0314 1.9322-4.0353 3-6z" fill="#F3EEF3"/>
<path transform="translate(679,1063)" d="m0 0v2h-2v2c-2.5 1.625-2.5 1.625-5 3v-4c2.5048-2.4185 3.4601-3 7-3z" fill="#CB9196"/>
<path transform="translate(570,1059)" d="m0 0c3.8088 1.4447 5.2974 3.326 7 7l-1 3c-1.0028-1.4773-2.0021-2.9569-3-4.4375-0.55688-0.82371-1.1138-1.6474-1.6875-2.4961-1.3125-2.0664-1.3125-2.0664-1.3125-3.0664z" fill="#8B6977"/>
<path transform="translate(821,971)" d="m0 0v1l-13-1v-1c4.9437-1.2058 8.2086-0.62907 13 1z" fill="#FDDBE3"/>
<path transform="translate(293,812)" d="m0 0 2 1-1 8h-2c-1.2554-3.7662-0.37062-5.3719 1-9z" fill="#F2E2EB"/>
<path transform="translate(566,1193)" d="m0 0 2 1-5 6-2-1c0.8125-2.4375 0.8125-2.4375 2-5 0.99-0.33 1.98-0.66 3-1z" fill="#DA8F97"/>
<path transform="translate(584,1175)" d="m0 0v8l-1-3c-2.0151-0.73324-2.0151-0.73324-4-1 3.875-4 3.875-4 5-4z" fill="#A16D7A"/>
<path transform="translate(628,1160)" d="m0 0c0.99 0.33 1.98 0.66 3 1v3h-2l-1 3-2-4h2v-3z" fill="#E19395"/>
<path transform="translate(599,1127)" d="m0 0c1.1875 1.6875 1.1875 1.6875 2 4-1.1875 2.6875-1.1875 2.6875-3 5-0.99 0.33-1.98 0.66-3 1v-3l3-3c0.71448-2.1033 0.71448-2.1033 1-4z" fill="#D9929C"/>
<path transform="translate(815,1081)" d="m0 0c1 2 1 2 0.3125 4.5-1.4682 2.7965-2.4055 3.4341-5.3125 4.5 1.2492-3.4593 2.6753-6.1469 5-9z" fill="#716B75"/>
<path transform="translate(384,1080)" d="m0 0 4 1 1 6c-0.99-0.33-1.98-0.66-3-1v-4h-2v-2z" fill="#706674"/>
<path transform="translate(893,1078)" d="m0 0c0.97608 2.9282 1.0823 4.9561 1 8h-5c1.75-5.75 1.75-5.75 4-8z" fill="#817686"/>
<path transform="translate(613,1060)" d="m0 0h5v3c-1.875 1.0625-1.875 1.0625-4 2l-2-1 1-4z" fill="#F2E2E4"/>
<path transform="translate(622,1056)" d="m0 0 2 1c0.40729 2.3216 0.74439 4.6569 1 7h-2c-1.625-2.5-1.625-2.5-3-5l2-3z" fill="#FCF4F6"/>
<path transform="translate(832,1040)" d="m0 0c1.0327 2.7882 1.0451 3.8677 0.0625 6.75-0.35062 0.7425-0.70125 1.485-1.0625 2.25-1.1875-1.6875-1.1875-1.6875-2-4 1.375-2.75 1.375-2.75 3-5z" fill="#F6F1F5"/>
<path transform="translate(356,1038)" d="m0 0 2 1v2h-2v6c-0.99 0.33-1.98 0.66-3 1 0.30798-1.4801 0.62152-2.9591 0.9375-4.4375 0.17402-0.82371 0.34805-1.6474 0.52734-2.4961 0.53516-2.0664 0.53516-2.0664 1.5352-3.0664z" fill="#FCF4F8"/>
<path transform="translate(811,1008)" d="m0 0 2 1-4 7-1-2-2-1 5-5z" fill="#FDE7EC"/>
<path transform="translate(948,668)" d="m0 0 1 2-2-1 1-1zm-2 2c0.99 0.33 1.98 0.66 3 1v2h2l-2 4c-3-4.75-3-4.75-3-7z" fill="#F5E2EA"/>
<path transform="translate(603,268)" d="m0 0c-0.25 1.875-0.25 1.875-1 4-2.0625 1.25-2.0625 1.25-4 2v-4c3-2 3-2 5-2z" fill="#9F889B"/>
<path transform="translate(551,265)" d="m0 0c3 0 3 0 6 1l-1 4c-1.98-0.66-3.96-1.32-6-2l1-3z" fill="#F2DDE6"/>
<path transform="translate(611,257)" d="m0 0 4 2-8 5c0.60184-2.0205 1.2731-4.0211 2-6l2-1z" fill="#F2DCE5"/>
<path transform="translate(573,1161)" d="m0 0 1 3c-1.3125 2.1875-1.3125 2.1875-3 4h-2c0.3125-2.375 0.3125-2.375 1-5l3-2z" fill="#8C6B78"/>
<path transform="translate(603,1154)" d="m0 0h3l1 4h-3l-2 2c-0.042721-1.6661-0.040638-3.3338 0-5l1-1z" fill="#956D75"/>
<path transform="translate(1027,1148)" d="m0 0c2 4 2 4 2 8h-2l-1 4 1-12z" fill="#C7BED4"/>
<path transform="translate(584,1145)" d="m0 0c0.99 0.33 1.98 0.66 3 1l-4 6-2-4c0.99-0.33 1.98-0.66 3-1v-2z" fill="#8F6F79"/>
<path transform="translate(646,1129)" d="m0 0c5.75 1.875 5.75 1.875 8 3v2h-4v-2l-4-1v-2z" fill="#8D6C78"/>
<path transform="translate(547,1056)" d="m0 0c2.1538 2.622 3.4007 4.644 4 8l-4-1c-1.125-4.75-1.125-4.75 0-7z" fill="#906E7A"/>
<path transform="translate(665,1055)" d="m0 0c2.97 0.99 5.94 1.98 9 3l-2 2c-2.625-0.375-2.625-0.375-5-1v-2h-2v-2z" fill="#DE9998"/>
<path transform="translate(692,826)" d="m0 0 1 3-5 5-2-1c1.98-2.31 3.96-4.62 6-7z" fill="#FCE1E0"/>
<path transform="translate(338,717)" d="m0 0c1.8578 3.135 2.2014 5.3747 2 9l-3-2 1-7z" fill="#F2DEE5"/>
<path transform="translate(652,345)" d="m0 0 7 2v2h-6l-1-4z" fill="#A18A9B"/>
<path transform="translate(442,139)" d="m0 0-1 4c-2.375 0.625-2.375 0.625-5 1l-2-2c5.75-3 5.75-3 8-3z" fill="#F1E0EA"/>
<path transform="translate(697,1186)" d="m0 0h2c0.625 2.8125 0.625 2.8125 1 6l-2 3-1-9z" fill="#8A6970"/>
<path transform="translate(599,1172)" d="m0 0h1c0.081596 4.1614-0.017515 7.9472-1 12h-1c-0.92471-4.716-1.2292-7.6727 1-12z" fill="#C98894"/>
<path transform="translate(611,1164)" d="m0 0 3 2c0.40844 2.712 0.13337 5.2437 0 8-2.2963-3.4445-2.5402-5.9381-3-10z" fill="#E3909B"/>
<path transform="translate(594,1135)" d="m0 0c0 3.204-0.74335 5.094-2 8-0.99-0.33-1.98-0.66-3-1l5-7z" fill="#CA8A90"/>
<path transform="translate(523,1136)" d="m0 0h6c-2.8531 2.3247-5.5407 3.7508-9 5l1-3h2v-2z" fill="#906979"/>
<path transform="translate(648,1128)" d="m0 0h4v2l4 2-2 1c-2.0314-0.93447-4.0353-1.9322-6-3v-2z" fill="#D78F9B"/>
<path transform="translate(355,1074)" d="m0 0 1 3h2v5l-4-2 1-6z" fill="#FDF5FA"/>
<path transform="translate(636,1076)" d="m0 0c0.99 0.33 1.98 0.66 3 1l-7 6 1-4h2l1-3z" fill="#956D7A"/>
<path transform="translate(552,1066)" d="m0 0c3.6723 3.08 4.568 5.2483 5 10-2-1-2-1-2.8516-3.0664-0.25523-0.82371-0.51047-1.6474-0.77344-2.4961-0.26039-0.82629-0.52078-1.6526-0.78906-2.5039-0.19336-0.63809-0.38672-1.2762-0.58594-1.9336z" fill="#8C6D76"/>
<path transform="translate(265,829)" d="m0 0 2 1c0.625 3.0625 0.625 3.0625 1 6l-3 2v-9z" fill="#EDDBE8"/>
<path transform="translate(239,781)" d="m0 0c1.4169 4.2506 0.1932 6.7185-1 11-1.1875-1.5625-1.1875-1.5625-2-4 1.375-3.75 1.375-3.75 3-7z" fill="#D1C1D4"/>
<path transform="translate(334,768)" d="m0 0 2 3c-0.67969 2.2617-0.67969 2.2617-1.875 4.6875-0.58395 1.2124-0.58395 1.2124-1.1797 2.4492-0.46793 0.92232-0.46793 0.92232-0.94531 1.8633-1.1238-3.3044-0.89555-5.0507 0.4375-8.25 0.28746-0.70641 0.57492-1.4128 0.87109-2.1406 0.22816-0.53109 0.45633-1.0622 0.69141-1.6094z" fill="#F0D3D7"/>
</svg>
